<svg id="Layer_1" data-name="Layer 1" xmlns="http://www.w3.org/2000/svg" viewBox="0 0 151.08 183.91"><defs><style>.cls-1{fill:#fff;}.cls-2{fill:#eb2229;}</style></defs><path class="cls-1" d="M149.19,140.88c-2.39.06-23.47.59-27.82,1.67-3.08.76-8.68-.59-10.58-1.18a1.84,1.84,0,0,0-1.1,3.52,37.07,37.07,0,0,0,9.46,1.57,12.9,12.9,0,0,0,3.11-.33c3.34-.83,20.64-1.41,27-1.56a1.85,1.85,0,0,0-.1-3.69"/><path class="cls-2" d="M147.65,80.18a1.81,1.81,0,0,0,.11-.65h0s0-.07,0-.11a2,2,0,0,0-.13-.53l-.12-.21a2.25,2.25,0,0,0-.12-.21,55.94,55.94,0,0,0-29.3-17.84,16.32,16.32,0,0,0,5.59-12.09c0-7.06-4.49-11.76-6.67-13.64a14.61,14.61,0,0,0,1.09-5.06c.17-5-2.25-10.07-6.63-13.82a21.47,21.47,0,0,0-10.82-4.6s0-.09,0-.13A22.85,22.85,0,0,0,80.5,0C70.24,0,64.65,4.9,62.3,7.69a11.13,11.13,0,0,0-5-2.21c-5-.85-10.22,1.47-14.08,6.22A24.51,24.51,0,0,0,38.13,30c-5.19,3.31-10,8.77-10,17.61a27.07,27.07,0,0,0,5.37,16.12C20.55,69.05,12.09,80.92,11.64,81.56c-.06.1-.1.19-.15.28l0,.09a2,2,0,0,0-.13.62s0,0,0,.07,0,0,0,.07a2.27,2.27,0,0,0,.12.63,0,0,0,0,1,0,0h0A35.12,35.12,0,0,0,28,99.91a89.59,89.59,0,0,1-26.12,4,1.85,1.85,0,1,0,0,3.69c13.86,0,23.62-3,32.23-5.64,6.24-1.92,11.64-3.58,17.25-3.58,11.64,0,17.47,6,17.56,6l3.87,3.87a1.83,1.83,0,0,0,1.31.54,1.79,1.79,0,0,0,1.3-.54,1.83,1.83,0,0,0,0-2.6l-.87-.88V76.49a.91.91,0,1,1,1.81,0v26.92a1.85,1.85,0,0,0,3.7,0V95.83a23.3,23.3,0,0,0,5,4A1.84,1.84,0,1,0,86.9,96.7,17.84,17.84,0,0,1,80,89.49v-5.1L88.36,84l4,12.8a1.84,1.84,0,0,0,1.76,1.29A1.76,1.76,0,0,0,94.7,98a1.84,1.84,0,0,0,1.21-2.31L92.18,83.84l5.72-.26,6.65,11.89a1.84,1.84,0,0,0,1.61.94,1.94,1.94,0,0,0,.9-.23,1.86,1.86,0,0,0,.71-2.52L102,83.41l11.74-.53L122,96.39c-.47.2-.93.42-1.41.62a1.85,1.85,0,0,0,.71,3.55,1.75,1.75,0,0,0,.7-.14c1.22-.51,2.39-1.06,3.52-1.63l.1,0s0,0,0,0a64.29,64.29,0,0,0,21.75-18.07,1.22,1.22,0,0,0,.14-.28,1.76,1.76,0,0,0,.09-.2m-55.4,0,8-17.19a16.71,16.71,0,0,1,3.4-.38,57.9,57.9,0,0,1,7.73.54L98,79.89Zm-29.6-62.6a10.26,10.26,0,0,1,1.46-1,14.44,14.44,0,0,0,9,5.48,12.7,12.7,0,0,0,1.85.14,17.86,17.86,0,0,0,10-3.57,28.85,28.85,0,0,1-6.28,8.3A7.29,7.29,0,0,1,73.23,29c-5.12-.18-10.34-5-12-6.63.1-.94.23-1.89.39-2.86a4.35,4.35,0,0,1,1-2M68.74,16a8,8,0,0,1,7.08-3.78c2.86,0,4.29,2.25,5,4.55a11.67,11.67,0,0,1-7.12,1.56,9.86,9.86,0,0,1-5-2.33M60.91,27.12c2.85,2.38,7.39,5.43,12.17,5.6a10.9,10.9,0,0,0,8.19-3.19c6.27-6,8.1-11.21,8.63-14a9,9,0,0,1,5,2.36A5.18,5.18,0,0,1,96.15,22C95.8,26.16,91,35.55,82.74,39.57c-6.37,3.1-13.3,2.32-20.59-2.26a35.47,35.47,0,0,1-1.24-10.19m13.89,18a21.92,21.92,0,0,0,9.56-2.22c9.19-4.47,14.81-14.53,15.44-20.28,3.3,2.69,8.6,8.73,8.6,19.73,0,8-2.49,13.75-7.21,16.7l0,0a22.42,22.42,0,0,0-2.74.53l-.13,0a31.33,31.33,0,0,0-4.72,1.62l-.67-.16h-.1s-.07,0-.11,0S76,59,66.86,47a29.12,29.12,0,0,1-2.69-4.35,25.33,25.33,0,0,0,10.63,2.5m40.7,18.74A55.14,55.14,0,0,1,122.85,66l-9.08,13.15-10.84.49Zm10.84,3.61c1.71.79,3.32,1.6,4.8,2.45l-4.79,8.71L118.4,79Zm7.94,4.41a54.29,54.29,0,0,1,7.56,6.06l-11.17.5ZM120,48.53a12.83,12.83,0,0,1-6.86,11.1c-2-.31-4.07-.53-6.24-.65,2.84-3.23,5.22-8.39,5.22-16.64,0-.34,0-.63,0-1a18.12,18.12,0,0,0,3.07-3.2A14.48,14.48,0,0,1,120,48.53M114.39,29.7a11.2,11.2,0,0,1-2.76,7C109.55,24,101,18.7,99.17,17.71a8.48,8.48,0,0,0-1.49-2.3c-.21-.22-.42-.44-.65-.64,4,.19,8.64,1.14,12,4s5.47,7,5.34,10.89M80.5,3.69A19.27,19.27,0,0,1,96,11a38.88,38.88,0,0,0-8.11.69s-.07,0-.12,0l-.19.05-.11.07s0,0,0,0a3,3,0,0,0-.3.19l-.12.07a33.38,33.38,0,0,1-3,2.57c-1.55-4-4.42-6.2-8.18-6.2a11.53,11.53,0,0,0-9.56,4.6,14,14,0,0,0-1.42-2.75c1.63-2.07,6.32-6.7,15.66-6.7M46.13,14c3-3.69,7-5.53,10.58-4.9a7.44,7.44,0,0,1,4.37,2.42l.05.06a8.59,8.59,0,0,1,1.17,1.69,15.06,15.06,0,0,0-2.1,1.5,7.39,7.39,0,0,0-2,3.17,30.89,30.89,0,0,0-8.32,7.31A38,38,0,0,0,41.67,28a20.7,20.7,0,0,1,4.46-14M31.8,47.57c0-6.57,3.19-11.7,9.47-15.26A30.79,30.79,0,0,1,47,29.84,26.44,26.44,0,0,0,45,34.79c-2.21,8-.59,16.9,4.8,26.49-1.25-.11-2.55-.17-3.91-.17a31.16,31.16,0,0,0-8.78,1.29A23.8,23.8,0,0,1,31.8,47.57M63.6,96.88a32.74,32.74,0,0,0-9.14-2.08l6-10.33H70.8v5a17.58,17.58,0,0,1-7.19,7.39h0m-23.27-.62L48,84.47h8.18l-6,10.22a45.85,45.85,0,0,0-9.92,1.57m-6.94,2-.5-.23a33.43,33.43,0,0,1-4.58-2.14l7.85-11.44h7.46L35,97.7a.54.54,0,0,0,0,.1l-1.55.48M41.45,65.2l3.31,15.58H36.1l-7.79-10.1A34.63,34.63,0,0,1,41.45,65.2m9.45-.11,5.87,15.69H48.53l-3.38-16,.77,0a43.22,43.22,0,0,1,5,.29m19.9,11.4v4.29H60.71l-5.61-15c9.57,2.11,14.42,7.09,15.7,8.6ZM25.31,72.84l6.13,7.94H17a58.1,58.1,0,0,1,8.32-7.94M16.23,84.47H31.69L25.18,94a33.23,33.23,0,0,1-8.95-9.48M67.46,98.76a23.26,23.26,0,0,0,3.34-2.93v5.3a23.31,23.31,0,0,0-3.34-2.37M75.4,71.89a4.31,4.31,0,0,0-1.61.31c-1.44-1.76-7.38-8.09-19.31-10.31-6-9.64-8-18.41-5.91-26.07A25.15,25.15,0,0,1,57.43,23a41.56,41.56,0,0,0,1.32,15.78,2,2,0,0,0,.09.33,32.42,32.42,0,0,0,5.1,10.11C71.18,58.81,82.28,62.58,88.22,64a69.67,69.67,0,0,0-11.14,8.24,4.45,4.45,0,0,0-1.68-.33M80,76.49V74.55c1.92-1.71,8.41-7.18,15.47-10.09L88.09,80.33,80,80.7Zm38,6.2,8.59-.38,5.88,7.9a56.1,56.1,0,0,1-7.09,4.53Zm17.36,5.22L131,82.11l10.83-.49a63.94,63.94,0,0,1-6.51,6.29"/><path class="cls-2" d="M31.88,151.6c-10.84-14-29.6-10.38-30.39-10.23A1.85,1.85,0,0,0,2.21,145c.17,0,17.3-3.31,26.76,8.86a22.84,22.84,0,0,0,2.77,3,1.8,1.8,0,0,0,1.24.48,1.85,1.85,0,0,0,1.24-3.21,19.75,19.75,0,0,1-2.34-2.52"/><path class="cls-2" d="M110.08,140.35l-.5-.49L85.39,115.67a1.85,1.85,0,0,0-2.61,2.61c9.92,9.93,23,23,24.19,24.19l.53.52c1.9,1.86,6.94,6.79,7,10.5a3.16,3.16,0,0,1-1,2.35,4.62,4.62,0,0,1-3.24,1.45c-2.55,0-4.94-2.21-5.45-2.71-1.06-1.11-2.14-2.06-3-2.8L101,151l-8-8-2.62,2.6,8,8c.23.22.58.54,1,.93,1.72,1.51,5.74,5.08,5.83,7.76a2.38,2.38,0,0,1-.79,1.79,3.45,3.45,0,0,1-2.66,1.2c-1.9-.09-3.82-1.93-4.4-2.61,0,0,0,0,0,0a21,21,0,0,0-1.78-2.06L86,151l-2.61,2.62,9.6,9.6a9.88,9.88,0,0,1,2.81,4.23,3.35,3.35,0,0,1-1.14,3.39c-1.82,1.82-4.53.5-5.44,0a10.64,10.64,0,0,0-1.62-2.12c-2.23-2.23-8-8.67-8-8.74a1.85,1.85,0,0,0-2.76,2.46c.24.27,5.85,6.58,8.16,8.89a6.11,6.11,0,0,1,1.77,3.27,3.39,3.39,0,0,1-1,3.11,1.85,1.85,0,0,1-1.34.54c-1.23,0-4.15-.89-9.74-6.67a1.85,1.85,0,0,0-2.65,2.57c5,5.22,9.09,7.76,12.37,7.78h0a5.45,5.45,0,0,0,3.92-1.6,7.18,7.18,0,0,0,2.16-5.08,8.6,8.6,0,0,0,1.91.22,6.69,6.69,0,0,0,4.87-2,7.26,7.26,0,0,0,2.31-4.88,7.88,7.88,0,0,0,2,.41h.33a7.2,7.2,0,0,0,5.13-2.28,6,6,0,0,0,1.86-4.51,6.47,6.47,0,0,0-.2-1.38,9.18,9.18,0,0,0,1.49.16h.12a8,8,0,0,0,5.79-2.54,6.77,6.77,0,0,0,2.09-5c0-5.25-5.67-10.76-8.08-13.12"/><path class="cls-1" d="M71.8,161.94a6.81,6.81,0,0,0-1.68.24,10.18,10.18,0,0,0,1.12-4.35,6.73,6.73,0,0,0-2.06-4.94,5.6,5.6,0,0,0-4-1.71,7.63,7.63,0,0,0-3,.65A6.45,6.45,0,0,0,60,147.3c-2.94-2.72-6.34-1.82-9.27,0,0-.17,0-.33,0-.48A5.2,5.2,0,0,0,49.13,143a4.71,4.71,0,0,0-3.3-1.36c-3.11,0-6,2.93-8.36,5.28l-.46.47a36.35,36.35,0,0,0-5.25,6.48c-2.79,4.7-1.68,7.38-.26,8.8a5,5,0,0,0,3.6,1.54,5.8,5.8,0,0,0,1.83-.34c-.66,2.39-.45,4.65,1.34,6.44a6.61,6.61,0,0,0,4.75,2,8,8,0,0,0,2.08-.3,6.13,6.13,0,0,0,5.95,7.18,9.78,9.78,0,0,0,5.4-2,5.68,5.68,0,0,0,1.16,5.18,4.52,4.52,0,0,0,3.51,1.56c5.41,0,12.8-8.27,15-13.64,1.51-3.77.55-5.8-.54-6.83a5.29,5.29,0,0,0-3.74-1.5m-37.69-1.89c-.94-.93.11-3.09.83-4.29A32.28,32.28,0,0,1,39.61,150l.48-.48c1.55-1.57,4.16-4.18,5.74-4.18a1,1,0,0,1,.76.34,1.5,1.5,0,0,1,.48,1.17c0,2.27-2.73,6.05-5.47,8.8l-.66.68c-1.43,1.46-4.1,4.19-5.84,4.19a1.3,1.3,0,0,1-1-.47m6.77,7.65c-2.14-2.15,1.87-8.1,6.81-13s8-6.35,9.81-4.64c.71.65,2.14,2-.59,5.43-1,.9-2,1.87-3,2.85a44.54,44.54,0,0,0-6.82,8.49c-1.55,1.3-4.2,2.92-6.21.92m8.49,7.05c-2.31-2.31,1.93-8.62,7.15-13.85.79-.79,1.82-1.82,2.95-2.81,0,0,.11-.07.15-.13s0,0,0,0c1.85-1.61,3.93-3.07,5.51-3.07a1.87,1.87,0,0,1,1.41.62,3.11,3.11,0,0,1,1,2.33c0,3.62-5,8.58-7.15,10.7l-.52.51-.85.86c-2.05,2.11-5.48,5.62-8,5.62a2.28,2.28,0,0,1-1.68-.76m23.28-5.85c-2,5-8.46,11.32-11.53,11.32a.83.83,0,0,1-.72-.29c-1.42-1.62.94-6.1,5.73-10.88,2.15-2.14,4.27-3.43,5.67-3.43a1.65,1.65,0,0,1,1.19.48c.27.27.28,1.25-.34,2.8"/><path class="cls-1" d="M61.28,126.47c0-8,12.64-17.22,18.72-21.62,1.31-1,2.35-1.72,3-2.29C87.22,99.11,96,97,106.51,97c8.12,0,14.83,3.75,19,6.89,5.26,3.95,21.88,4,23.71,4a1.85,1.85,0,0,0,0-3.69h-.17c-6.63,0-18.13-.88-21.33-3.28-4.64-3.47-12.09-7.62-21.23-7.62-11.52,0-20.93,2.32-25.81,6.36-.61.5-1.65,1.27-2.87,2.15C70.77,107,57.66,116.49,57.58,126.4c-.08,1-.68,10.06,3.39,14.52a7.66,7.66,0,0,0,5.9,2.55,6.6,6.6,0,0,0,5-1.95c2.66-2.79,2.42-7.74,2.23-11.71a19.23,19.23,0,0,1,0-4.13c2.15-2.77,6.8-6.85,10-6.85a1.85,1.85,0,0,0,0-3.7c-5.29,0-11.09,6-12.88,8.28-1,1.35-1,3.54-.8,6.58s.36,7.34-1.21,9a2.9,2.9,0,0,1-2.32.8,4,4,0,0,1-3.16-1.33c-2.62-2.85-2.65-9.48-2.44-11.8,0,0,0-.11,0-.17"/></svg>