<?xml version="1.0" encoding="utf-8"?>
<!-- Generator: Adobe Illustrator 25.2.3, SVG Export Plug-In . SVG Version: 6.00 Build 0)  -->
<svg version="1.1" id="DSA_Richmond_Logo" xmlns="http://www.w3.org/2000/svg" xmlns:xlink="http://www.w3.org/1999/xlink" x="0px"
	 y="0px" viewBox="0 0 6456.9 1600" style="enable-background:new 0 0 6456.9 1600;" xml:space="preserve">
<style type="text/css">
	.st0{fill:#231F20;}
	.st1{fill:#FFFFFF;}
	.st2{fill:#EB2227;}
	.st3{fill:none;}
</style>
<g>
	<rect id="Background" class="st0" width="1600" height="1600"/>
	<g id="Stars">
		<path id="path3475" class="st1" d="M800.2,77l13.1,40.4h42.5l-34.4,25l13.1,40.4l-34.4-25l-34.4,25l13.1-40.4l-34.4-25h42.5
			L800.2,77z"/>
		<path id="path3482" class="st1" d="M308.3,361.9l41.6,8.8l21.3-36.8l4.4,42.3l41.6,8.8l-38.8,17.3l4.4,42.3L354.4,413l-38.8,17.3
			l21.3-36.8L308.3,361.9L308.3,361.9z"/>
		<path id="path3484" class="st1" d="M230.7,646.5l40.4-13.1v-42.5l25,34.4l40.4-13.1l-25,34.4l25,34.4l-40.4-13.1l-25,34.4v-42.5
			L230.7,646.5L230.7,646.5z"/>
		<path id="path3486" class="st1" d="M308.3,931.1l28.4-31.6l-21.3-36.8l38.8,17.3l28.5-31.6l-4.4,42.3l38.8,17.3l-41.6,8.8
			l-4.4,42.3l-21.3-36.8L308.3,931.1z"/>
		<path id="path3488" class="st1" d="M1084.8,154.6l-8.8,41.6l36.8,21.3l-42.3,4.4l-8.8,41.6l-17.3-38.8l-42.3,4.4l31.6-28.5
			l-17.3-38.8l36.8,21.3L1084.8,154.6L1084.8,154.6z"/>
		<path id="path3490" class="st1" d="M1292.1,361.9l-28.4,31.6l21.3,36.8l-38.8-17.3l-28.5,31.6l4.4-42.3l-38.8-17.3l41.6-8.8
			l4.4-42.3l21.3,36.8L1292.1,361.9L1292.1,361.9z"/>
		<path id="path3498" class="st1" d="M515.6,154.6l31.6,28.4l36.8-21.3l-17.3,38.8l31.6,28.5l-42.3-4.4l-17.3,38.8l-8.8-41.6
			l-42.3-4.4l36.8-21.3L515.6,154.6L515.6,154.6z"/>
		<path id="path3500" class="st1" d="M1369.7,646.5l-40.4,13.1v42.5l-25-34.4l-40.4,13.1l25-34.4l-25-34.4l40.4,13.1l25-34.4v42.5
			L1369.7,646.5L1369.7,646.5z"/>
		<path id="path3502" class="st1" d="M1292.1,931.1l-41.6-8.8l-21.3,36.8l-4.4-42.3l-41.6-8.8l38.8-17.3l-4.4-42.3l28.5,31.6
			l38.8-17.3l-21.3,36.8L1292.1,931.1z"/>
	</g>
	<g id="Riverman">
		<path class="st2" d="M323.6,473.5c-7.9,8.6-27.8,16-27.8,16s-27.4,4.5-34.1,14.5c0,0,7.9,39.8,27,45.9c0,0,17.4,57.9,46.2,88.3
			c0,0,23.8,33.9,22.7,47.3c0,0,37.4-29.2,41.8-72.6c0,0-1.7-12.6,62.5-67.1c0,0,140.4-101.8,134.4-113.4l-81.2-109.6l-56.5-70
			c0,0-74.3,56.4-94.2,152.6C364.4,405.5,338.3,457.5,323.6,473.5L323.6,473.5z"/>
		<path id="path2443" class="st1" d="M466.4,236.7c-9.2-0.7-22.1,11.6-16,19.1L540.3,366c4,4.9,7.7,10.5,7.7,18.4
			c0,11.5,12.8,26.9,30,33.4c3,1.1,6.6,2.4,9.7,6.2l10,12.1c25.6,30.9,33.7,59.5,66.7,89.6c7.3,6.6,17.5,13.7,23.8,21.4l64.6,79.1
			c22.7,27.7,17.7,50.9,1,67.9l-69.3,71c-10.2,10.5-17.9,25.1-17.1,40l0.9,15c0.9,15.4-2.3,26.4-6.3,24.3
			c-21.5-10.7-35.9-6.4-50.1,8.7l-56.6,60c-13.9,14.7-9.1,30.8-0.9,45l50.9,87.4c5,8.6-4.2,29.4-22.8,29.4h-49.2
			c-10.8,0-20.7-8.7-28.9-17.7l-17.7-19.4l-18.1,20.3c-7.9,8.9-16.8,16.8-31.1,16.8h-21.2c-9.3,0-24.6-15.9-29.4-23.3
			c-5.4,8.3-17.9,23.3-31.1,23.3H0V1600h1600v-525.3h-128.5c-17.7,0-31.3-13.5-49.7-31.5c-21.2,18-28,31.5-53.1,31.5
			c-35.2,0-46.7-25.2-57.5-37.1c-30.1,28.2-77.5,39.8-130.9,37.1h-26.8L933.8,804c-9.2-11.3-19.8-21.5-5.8-42.8l51.9-78.7
			c11.6-17.5,7.8-35.5-7-57.2l-59-86.4c-10.6-15.5-23.9-21.6-39.2-24.6l-29-5.7c-6.3-1.2-10.4-6.3-11.9-12.3
			c-4.1-16.7,13.6-33.3,12.7-59c-0.9-26.3-13.9-43.1-35.6-44.1c-24.8-1.1-39.8,16.2-42.3,32.2c-4.7,29.6,11.1,43.9,7.6,57.7
			c-1.3,5-6.2,16-16.7,13.2l-55.3-14.8c-7.5-2-14.3-8.1-19.8-13.6c-21.2-21.4-47.4-17.2-70-65.3c-9.9-21-15.4-30.7-29.2-36.7
			c-6.9-3-11.9-2-15.7-6.6l-97.7-119.6C470.5,237.7,468.5,236.9,466.4,236.7L466.4,236.7z M909.5,630c2.9-0.3,5.9,0.7,8,3.1
			l12.6,14.8c5.1,6,3.7,13.5,0,20.4L909.8,706c-3.3,6.1-21.6,4.6-19.1-11.9l8.5-55.9C899.9,634,904.6,630.5,909.5,630L909.5,630z
			 M813.6,789.3c10.7-0.3,18.8,5.4,20.5,14.8l14.6,81.5c1.5,8.3,1.3,14.5,1.4,21.1c0.1,10.7-10.1,20.5-20.8,15.6l-81-37.3
			c-13.6-6.2-12.6-21.4-12.5-27.5l0.3-16.5c0.2-12.8,5.7-26.2,17.7-30.8l48.4-18.4C806.1,790.3,810,789.4,813.6,789.3L813.6,789.3z
			 M930.7,848.3c2.3,0,4.6,1.2,6.7,3.7l182.1,222.7h-41.1c-10.5,0-10.8-11.6-10.4-20.7c0.8-16.5-7.6-22.9-21.6-29.4l-104.5-48.2
			c-10.5-4.9-17-14.8-18-25.8l-2.4-24.8c-0.7-7-1.6-15.1-0.9-26.9l2.6-41.4C923.6,851.6,926.9,848.3,930.7,848.3L930.7,848.3z"/>
	</g>
	<g id="Text">
		<path id="path3408" class="st2" d="M1169.1,1135.2l74.4,91.2c7.7,9.4,28.8-6.6,20.5-16.6l-61.1-74.5H1600V1600H0v-464.8H1169.1z"
			/>
	</g>
</g>
<g>
	<g>
		<polygon class="st2" points="5681.3,0 5251.2,0 5148.8,0 5099.7,0 1600,0 1600,1600 6456.9,1600 6456.9,0 		"/>
	</g>
	<g>
		<g>
			<path class="st0" d="M2805,1120c-15.6,0.4-153.6,3.9-182,10.9c-20.2,5-56.8-3.9-69.2-7.7c-6.3-2-13.1,1.6-15.1,8
				s1.6,13.1,7.9,15.1c1.7,0.5,33.4,10.3,61.8,10.3c7.2,0,14.2-0.6,20.4-2.2c21.8-5.4,135-9.2,176.8-10.2
				c6.7-0.2,11.9-5.7,11.8-12.4C2817.2,1125.2,2811.6,1120,2805,1120L2805,1120z"/>
		</g>
		<g>
			<line class="st3" x1="2783.5" y1="719.1" x2="2340.3" y2="738.9"/>
		</g>
		<g>
			<line class="st3" x1="2414.7" y1="732.2" x2="2476.3" y2="599.8"/>
		</g>
		<g>
			<line class="st3" x1="2476.3" y1="732.8" x2="2579.8" y2="602.8"/>
		</g>
		<g>
			<line class="st3" x1="2579.8" y1="728.2" x2="2651.4" y2="624.4"/>
		</g>
		<g>
			<line class="st3" x1="2662.8" y1="724.5" x2="2703.2" y2="651.2"/>
		</g>
		<g>
			<line class="st3" x1="2662.8" y1="724.5" x2="2712.3" y2="790.9"/>
		</g>
		<g>
			<line class="st3" x1="2579.8" y1="728.2" x2="2644.7" y2="834.2"/>
		</g>
		<g>
			<line class="st3" x1="2476.3" y1="732.8" x2="2523.5" y2="817.1"/>
		</g>
		<g>
			<line class="st3" x1="2414.7" y1="732.2" x2="2444.9" y2="828.1"/>
		</g>
		<g>
			<line class="st3" x1="1915" y1="738.9" x2="2304.3" y2="738.9"/>
		</g>
		<g>
			<line class="st3" x1="2217.8" y1="738.9" x2="2170.7" y2="613.1"/>
		</g>
		<g>
			<line class="st3" x1="2136.7" y1="738.9" x2="2109.7" y2="611.4"/>
		</g>
		<g>
			<line class="st3" x1="2059.2" y1="738.9" x2="1996.9" y2="658.1"/>
		</g>
		<g>
			<line class="st3" x1="2059.2" y1="738.9" x2="1996.9" y2="829.7"/>
		</g>
		<g>
			<line class="st3" x1="2136.7" y1="738.9" x2="2067.9" y2="844.2"/>
		</g>
		<g>
			<line class="st3" x1="2217.8" y1="738.9" x2="2164.8" y2="829.7"/>
		</g>
		<g>
			<g>
				<line class="st3" x1="2434" y1="609.9" x2="2442.1" y2="611.8"/>
			</g>
			<g>
				<g>
					<path class="st1" d="M2794.9,723c0.5-1.4,0.7-2.8,0.7-4.3v-0.1c0-0.2-0.1-0.4-0.2-0.6c-0.1-1.2-0.4-2.3-0.9-3.5
						c-0.2-0.5-0.5-0.9-0.7-1.4c-0.3-0.5-0.4-1-0.8-1.4c-3.3-4.2-68.4-86.2-191.7-116.7c22.7-20.2,36.6-49.1,36.6-79.1
						c0-46.2-29.4-77-43.7-89.2c4.3-10.5,6.8-21.7,7.2-33.1c1.1-32.9-14.7-65.9-43.4-90.4c-20.7-17.7-46.3-26.3-70.8-30.1
						c-0.1-0.3-0.1-0.6-0.2-0.8c-1.6-3-39.6-73.8-131.4-73.8c-67.1,0-103.7,32.1-119.1,50.2c-9.4-7.3-20.3-12.3-32.4-14.4
						c-32.4-5.6-66.8,9.6-92.1,40.7c-38,46.7-36.1,99.3-33.6,119.4c-34,21.7-65.5,57.4-65.5,115.2c0,37.8,11.8,73.2,35.1,105.5
						c-84.6,35-139.9,112.7-142.9,116.9c-0.4,0.6-0.7,1.2-1,1.8l-0.3,0.6c-0.5,1.3-0.8,2.7-0.8,4.1c0,0.2-0.1,0.3-0.1,0.4
						c0,0.2,0.1,0.3,0.1,0.5c0.1,1.4,0.3,2.7,0.8,4l0.1,0.1v0.1c1.8,4.3,29.7,69.6,108,108.4c-46.9,13.6-100.7,26-170.9,26
						c-6.7,0-12.1,5.4-12.1,12.1c0,6.7,5.4,12.1,12.1,12.1c90.7,0,154.5-19.6,210.9-36.9c40.9-12.6,76.2-23.4,112.9-23.4
						c76.1,0,114.3,38.9,114.8,39.5l25.4,25.3c2.4,2.4,5.4,3.5,8.5,3.5s6.2-1.2,8.5-3.5c4.7-4.7,4.7-12.4,0-17.1l-5.7-5.7v-185
						c0-3.3,2.7-5.9,5.9-5.9c3.3,0,5.9,2.7,5.9,5.9V875c0,6.7,5.4,12.1,12.1,12.1s12.1-5.4,12.1-12.1v-49.6
						c8.2,8.7,18.8,17.9,32.6,26.3c5.7,3.5,13.1,1.7,16.6-4s1.7-13.1-4-16.6c-29.9-18.1-42.2-40.8-45.1-47.2v-33.4l54.6-2.4
						l26.4,83.7c1.6,5.2,6.4,8.4,11.5,8.4c1.2,0,2.4-0.2,3.6-0.6c6.4-2,9.9-8.8,7.9-15.1L2432,747l37.5-1.7L2513,823
						c2.2,4,6.3,6.2,10.5,6.2c2,0,4-0.5,5.9-1.5c5.8-3.3,7.9-10.6,4.6-16.4l-37.6-67.1l76.8-3.4l54.1,88.3c-3.1,1.4-6.1,2.8-9.2,4.1
						c-6.2,2.6-9.1,9.6-6.5,15.8c1.9,4.6,6.4,7.4,11.2,7.4c1.5,0,3.1-0.3,4.6-0.9c8-3.3,15.6-6.9,23-10.6l0.6-0.3
						c0.1,0,0.1-0.1,0.1-0.1c89.2-44.9,140-115,142.3-118.2c0.4-0.6,0.6-1.3,0.9-1.9C2794.5,723.8,2794.8,723.4,2794.9,723
						L2794.9,723z M2432.4,722.7l52.3-112.4c7.5-1.5,14.9-2.4,22.2-2.4c17.7,0,34.5,1.3,50.5,3.5L2470.3,721L2432.4,722.7
						L2432.4,722.7z M2238.8,313.2c2.6-2.3,6.2-4.7,9.5-6.8c9.6,12.1,29.3,31.5,59.1,35.8c4,0.6,8.1,0.9,12.1,0.9
						c21.1,0,42.9-7.9,65.4-23.3c-7,14.7-19.3,33.5-41.1,54.3c-10.5,10.1-22.3,14.7-35.9,14.2c-33.5-1.2-67.6-32.4-78.6-43.4
						c0.7-6.2,1.5-12.4,2.6-18.8C2232.5,324.3,2234.7,316.9,2238.8,313.2L2238.8,313.2z M2278.7,303.2c5.4-8.8,19.1-24.8,46.3-24.8
						c18.7,0,28.1,14.7,32.8,29.8c-16.4,8.7-32,12.2-46.6,10.2C2297.6,316.5,2286.7,310,2278.7,303.2z M2227.4,375.9
						c18.6,15.6,48.4,35.5,79.7,36.7c20.4,0.7,38.3-6.3,53.6-20.9c41-39.2,53-73.3,56.4-91.5c9.9,1.7,24.3,5.7,33.1,15.4
						c6.3,6.9,8.8,15.8,7.9,27.1c-2.3,27-33.6,88.4-87.7,114.7c-41.7,20.3-87,15.2-134.7-14.8C2229.8,422,2227.1,399.7,2227.4,375.9
						z M2318.3,493.5c25,0,46.1-6.6,62.5-14.5c60.2-29.2,96.9-95.1,101-132.7c21.6,17.6,56.3,57.1,56.3,129
						c0,52.2-16.3,90-47.2,109.3c-0.1,0-0.1,0.1-0.2,0.2c-6,0.8-12,2-17.9,3.5c-0.3,0.1-0.6,0.1-0.9,0.2
						c-10.4,2.7-20.8,6.3-30.9,10.6l-4.4-1c-0.2-0.1-0.4,0-0.7,0s-0.5-0.2-0.7-0.2c-1.1-0.1-109.5-13.3-168.9-92.3
						c-6.8-9-12.6-18.5-17.6-28.5C2274.3,489,2297.7,493.5,2318.3,493.5L2318.3,493.5z M2584.6,616.2c17.2,3.8,33.1,8.7,48.1,14.2
						l-59.4,86.1l-71,3.2L2584.6,616.2L2584.6,616.2z M2655.5,639.8c11.2,5.1,21.7,10.5,31.4,16l-31.4,56.9l-52,2.3L2655.5,639.8z
						 M2707.4,668.6c21.7,14.5,38.3,28.8,49.5,39.6l-73.1,3.3L2707.4,668.6L2707.4,668.6z M2613.8,515.9c0,29.6-17.6,58-44.9,72.6
						c-13-2.1-26.7-3.5-40.8-4.2c18.5-21.2,34.2-55,34.2-108.9c0-2.2-0.2-4.1-0.3-6.2c7.8-6.4,14.5-13.4,20.1-21
						C2594.1,459.4,2613.8,482.9,2613.8,515.9L2613.8,515.9z M2577.3,392.7c-0.6,16.7-6.8,32.1-18.1,45.5
						c-13.6-82.8-69.7-117.5-81.5-123.9c-2.3-5.5-5.6-10.5-9.7-15c-1.4-1.5-2.8-2.9-4.3-4.2c26.2,1.3,56.5,7.5,78.6,26.4
						C2565.4,341.2,2578.2,367.2,2577.3,392.7z M2355.6,222.6c55.2,0,87.1,30.1,101.3,47.9c-28.8-0.5-51.1,4-53,4.4
						c-0.3,0.1-0.5,0.3-0.8,0.4c-0.4,0.1-0.9,0.2-1.3,0.3c-0.2,0.1-0.4,0.3-0.7,0.4c-0.1,0.1-0.2,0.1-0.3,0.2
						c-0.7,0.4-1.4,0.8-2,1.3c-0.2,0.2-0.5,0.3-0.8,0.5c-6.6,6.4-13.1,11.8-19.5,16.7c-10.1-25.9-28.9-40.5-53.5-40.5
						c-33.2,0-52.5,16.8-62.5,30.1c-2.5-6.5-5.6-12.6-9.3-18C2263.9,252.9,2294.5,222.6,2355.6,222.6L2355.6,222.6z M2130.7,290.2
						c19.7-24.2,45.5-36.2,69.3-32.1c11.3,2,21,7.5,28.6,15.9c0.1,0.1,0.2,0.2,0.3,0.4c2.9,3.3,5.5,6.9,7.6,11.1
						c-4.4,2.7-9.5,6.1-13.8,9.8c-7.1,6.4-10.9,15-12.9,20.7c-9.9,5.8-33.5,21.3-54.4,47.9c-9.4,1.9-30.6,7-53.9,17.9
						C2100.7,361,2103.6,323.6,2130.7,290.2L2130.7,290.2z M2037.1,509.6c0-42.9,20.8-76.5,61.9-99.8c13.1-7.4,26.3-12.6,37.3-16.2
						c-5,9.9-9.5,20.6-12.8,32.4c-14.5,52.3-3.8,110.5,31.4,173.2c-8.2-0.6-16.7-1.1-25.6-1.1c-20.1,0-39.3,3.1-57.4,8.4
						C2048.9,577,2037.1,544.4,2037.1,509.6L2037.1,509.6z M2245,832.2c-16.1-6.4-36.1-11.6-59.8-13.6l39.4-67.6h67.5v32.9
						C2289.2,790.4,2276.7,813.6,2245,832.2C2245.1,832.2,2245.1,832.2,2245,832.2L2245,832.2z M2092.8,828.2l50.4-77.1h53.5
						l-39,66.9C2135.7,818.6,2114.6,822.5,2092.8,828.2L2092.8,828.2z M2047.4,841.3l-3.3-1.5c-10.9-4.1-20.8-8.9-30-14l51.4-74.9
						h48.8l-56.6,86.6c-0.1,0.2-0.1,0.4-0.3,0.6C2054.2,839.3,2050.8,840.3,2047.4,841.3L2047.4,841.3z M2100.2,624.9l21.6,102
						h-56.6l-51-66.1C2039.1,644.3,2068.2,630.4,2100.2,624.9z M2162,624.2l38.4,102.7h-53.9l-22.1-104.4c1.7-0.1,3.3-0.1,5-0.1
						C2140.9,622.4,2151.7,623.1,2162,624.2z M2292.2,698.8v28.1h-66l-36.7-98.1c62.6,13.8,94.4,46.3,102.8,56.3v13.7H2292.2z
						 M1994.6,674.9l40.1,51.9h-94.5C1952.1,713,1970.8,693.4,1994.6,674.9z M1935.2,751h101.1l-42.6,62
						C1963.5,791.5,1945,766.9,1935.2,751z M2270.3,844.5c8.8-6.3,16-12.9,21.9-19.2V860C2287.9,856.3,2280.6,850.6,2270.3,844.5
						L2270.3,844.5z M2322.3,668.7c-3.7,0-7.3,0.8-10.6,2c-9.4-11.5-48.3-52.9-126.3-67.4c-39.4-63.1-52.4-120.5-38.7-170.6
						c11.3-41.1,38.6-68.8,58-83.9c-3.6,37.7-0.6,72.1,8.6,103.2c0.1,0.7,0.4,1.4,0.6,2.1c7.3,24.1,18.3,46.2,33.3,66.1
						c47.4,62.8,120,87.5,158.9,96.7c-37.8,22.2-66.8,48.2-72.9,53.9C2329.8,669.5,2326.2,668.7,2322.3,668.7L2322.3,668.7z
						 M2352.4,698.8v-12.7c12.6-11.2,55-47,101.2-66l-48.3,103.8l-52.9,2.4V698.8z M2600.8,739.4l56.2-2.5l38.5,51.7
						c-13.8,10.3-29.3,20.4-46.4,29.7L2600.8,739.4z M2714.4,773.5l-28.3-38l70.8-3.2C2746.9,743.6,2732.6,758.2,2714.4,773.5z
						 M2037.6,1190.2c-71-91.4-193.7-67.9-198.9-66.9c-6.5,1.3-10.8,7.7-9.5,14.2s7.7,10.8,14.2,9.5c1.1-0.2,113.2-21.6,175.1,58
						c5.3,6.8,11.4,13.4,18.1,19.5c2.3,2.1,5.2,3.2,8.1,3.2c3.3,0,6.5-1.3,8.9-3.9c4.5-4.9,4.1-12.6-0.8-17.1
						C2047.2,1201.5,2042,1195.9,2037.6,1190.2L2037.6,1190.2z M2549.1,1116.6l-3.3-3.2c-7.8-7.8-93.4-93.3-158.3-158.2
						c-4.7-4.7-12.4-4.7-17.1,0s-4.7,12.4,0,17.1c64.9,64.9,150.4,150.4,158.3,158.2l3.5,3.4c12.4,12.1,45.4,44.4,45.5,68.7
						c0,6-2,10.9-6.5,15.4c-6.5,6.5-13.7,9.4-21.2,9.5c-16.7-0.2-32.3-14.5-35.6-17.7c-7-7.3-14-13.5-19.5-18.3
						c-2.4-2.1-4.3-3.8-5.6-5l-52.2-52.2l-17.1,17.1l52.2,52.2c1.5,1.5,3.8,3.5,6.6,6.1c11.2,9.9,37.6,33.2,38.1,50.8
						c0.1,4.4-1.5,8.1-5.1,11.7c-5.6,5.6-11.3,8.2-17.4,7.8c-12.4-0.6-25-12.6-28.8-17.1l-0.1-0.1c-3.4-4.4-7.1-8.9-11.7-13.5
						l-62.8-62.8l-17.1,17.1l62.8,62.8c10.2,10.2,16.4,19.5,18.4,27.7s-0.3,15-7.5,22.1c-11.9,11.9-29.6,3.3-35.6-0.2
						c-2.9-4.9-6.4-9.7-10.6-13.9c-14.6-14.6-52-56.7-52.4-57.1c-4.4-5-12.1-5.5-17-1c-5,4.4-5.4,12.1-1,17
						c1.6,1.7,38.3,43.1,53.4,58.2c6.2,6.2,10.5,14,11.6,21.4c1.2,7.9-1,14.5-6.8,20.4c-2.4,2.4-5.2,3.3-8.7,3.5
						c-8.1-0.1-27.2-5.8-63.8-43.6c-4.6-4.8-12.3-4.9-17.1-0.3s-4.9,12.3-0.3,17.1c33,34.1,59.5,50.8,80.9,50.9h0.3
						c9.9,0,18.8-3.6,25.7-10.5c9.2-9.2,14-20.8,14.1-33.2c4,0.9,8.2,1.4,12.5,1.4c10.9,0,22.2-3.4,31.9-13.1
						c9.5-9.5,14.6-20.4,15.1-31.9c4.2,1.4,8.5,2.5,13.2,2.7c0.7,0,1.5,0.1,2.2,0.1c12.2,0,23.8-5.1,33.6-15
						c8.3-8.3,12.5-18.5,12.2-29.5c-0.1-3-0.6-6-1.3-9c3.2,0.6,6.4,1,9.7,1.1h0.7c14.1,0,26.9-5.6,37.9-16.6
						c9.1-9.1,13.7-20,13.6-32.6C2601.7,1168,2564.9,1132,2549.1,1116.6L2549.1,1116.6z"/>
				</g>
			</g>
		</g>
		<g>
			<path class="st0" d="M2298.7,1257.8c-3.7,0-7.4,0.7-11,1.6c4.5-9.3,7.4-18.9,7.4-28.4c0-12.4-4.5-23.3-13.5-32.4
				c-7.3-7.3-16.4-11.2-26.4-11.2c-6.4,0-12.8,1.6-19.3,4.2c-0.4-13.8-7.9-23.7-14.4-29.6c-19.2-17.8-41.5-12-60.7-0.1
				c0.1-1.1,0.2-2.1,0.2-3.2c-0.1-9.8-3.8-18.4-10.6-24.9c-6.1-5.8-13.6-8.9-21.6-8.9c-20.4,0-39.4,19.2-54.7,34.5l-3,3
				c-8.3,8.3-23.9,24.9-34.3,42.5c-18.3,30.7-11,48.2-1.7,57.5c6.6,6.6,14.8,10.1,23.6,10.1c4.1,0,8.1-0.9,12-2.2
				c-4.3,15.6-3,30.4,8.8,42.1c8.9,8.9,19.5,13.2,31.1,13.2c4.4,0,9-0.7,13.6-2c-1.7,12.9,1,25,10.9,34.9c8,8,17.5,12.1,28.1,12.1
				c12.2,0,24.2-5.6,35.3-13.3c-2.6,12.2-1,24,7.6,33.9c5.8,6.7,13.7,10.2,22.9,10.2c35.4,0,83.8-54.1,97.9-89.2
				c9.9-24.7,3.6-37.9-3.5-44.7C2316.4,1261.2,2308,1257.8,2298.7,1257.8L2298.7,1257.8z M2052.1,1245.5c-6.1-6.1,0.8-20.3,5.4-28.1
				c9.1-15.3,23.1-30.2,30.6-37.7l3.1-3.1c10.2-10.3,27.2-27.4,37.6-27.4c1.3,0,2.9,0.3,5,2.2c2.1,2,3.1,4.4,3.1,7.7
				c0.2,14.9-17.8,39.6-35.8,57.6l-4.3,4.4c-9.4,9.6-26.8,27.5-38.2,27.5C2057,1248.5,2054.8,1248.2,2052.1,1245.5L2052.1,1245.5z
				 M2096.4,1295.5c-14.1-14,12.2-53,44.5-85.3c32.3-32.2,52.1-41.6,64.2-30.4c4.6,4.2,14,13-3.9,35.5c-6.6,5.9-13.2,12.2-19.6,18.6
				c-14.6,14.6-32.5,34.7-44.6,55.5C2126.9,1298,2109.5,1308.6,2096.4,1295.5L2096.4,1295.5z M2152,1341.6
				c-15.1-15.1,12.6-56.4,46.8-90.6c5.1-5.1,11.9-11.9,19.3-18.4c0.3-0.3,0.7-0.5,1-0.8l0.1-0.1c12.1-10.6,25.7-20.1,36-20.1
				c3.6,0,6.5,1.3,9.2,4.1c4.5,4.5,6.5,9.3,6.5,15.2c-0.1,23.6-32.8,56.1-46.8,70l-3.4,3.3c-1.7,1.7-3.6,3.6-5.6,5.7
				c-13.4,13.8-35.9,36.8-52.2,36.8C2158.9,1346.6,2155.4,1345,2152,1341.6L2152,1341.6z M2304.3,1303.3
				c-13.1,32.5-55.4,74.1-75.5,74.1c-2.5,0-3.7-0.8-4.7-1.9c-9.2-10.6,6.2-39.9,37.5-71.2c14.1-14,27.9-22.4,37.1-22.4
				c3.1,0,5.5,1,7.8,3.2C2308.3,1286.8,2308.3,1293.2,2304.3,1303.3L2304.3,1303.3z M2229.8,1025.8c0-52.7,82.7-112.7,122.5-141.5
				c8.6-6.3,15.4-11.2,20-15c27.3-22.6,84.7-36.1,153.5-36.1c53.1,0,97,24.5,124.4,45c34.4,25.8,143.2,26.2,155.1,26.3
				c6.7,0,12.1-5.4,12-12.1c0-6.7-5.4-12-12.1-12h-1.2c-43.4,0-118.6-5.8-139.5-21.4c-30.4-22.7-79.1-49.9-138.9-49.9
				c-75.4,0-136.9,15.2-168.9,41.6c-4,3.3-10.8,8.3-18.8,14c-46.2,33.5-132,95.7-132.4,160.5c-0.6,6.8-4.5,65.8,22.2,95
				c10.1,11.1,23.1,16.7,38.5,16.7c13.6,0,24.6-4.3,32.7-12.8c17.4-18.3,15.8-50.6,14.5-76.6c-0.5-10.1-1.2-24,0.1-27
				c14.1-18.1,44.5-44.9,65.2-44.9c6.7,0,12.1-5.4,12.1-12.1c0-6.7-5.4-12.1-12.1-12.1c-34.6,0-72.6,39.1-84.3,54.2
				c-6.9,8.8-6.2,23.1-5.2,43c1,20.3,2.3,48-7.9,58.8c-2.2,2.3-6.1,5.3-15.2,5.3c-8.6,0-15.2-2.8-20.7-8.8
				c-17.1-18.6-17.3-62-15.9-77.2C2229.8,1026.5,2229.8,1026.2,2229.8,1025.8L2229.8,1025.8z"/>
		</g>
	</g>
	<g>
		<path d="M3176.3,528.7v-213h77.4c17.4,0,32.6,2.8,45.8,8.4c13.1,5.6,24,13.2,32.9,22.8c8.8,9.6,15.4,20.8,19.8,33.8
			c4.4,12.9,6.6,26.7,6.6,41.2c0,16.2-2.5,30.9-7.3,43.9c-4.9,13.1-12,24.3-21.2,33.6c-9.2,9.3-20.2,16.5-33.1,21.6
			c-12.9,5.1-27.4,7.6-43.4,7.6H3176.3z M3317,421.9c0-10.2-1.4-19.6-4.2-28.2c-2.8-8.6-6.9-16-12.3-22.2c-5.4-6.2-12.1-11-20-14.4
			c-7.9-3.4-16.9-5.1-26.9-5.1h-36v140.4h36c10.2,0,19.2-1.8,27.2-5.4c7.9-3.6,14.5-8.5,19.8-14.8c5.3-6.3,9.3-13.7,12.2-22.4
			C3315.6,441.2,3317,431.9,3317,421.9z"/>
		<path d="M3460.1,531.7c-12.6,0-24-2.2-34.2-6.5c-10.2-4.3-18.9-10.1-26.1-17.5c-7.2-7.4-12.8-16-16.7-25.8
			c-3.9-9.8-5.8-20.1-5.8-30.9c0-11.2,1.9-21.8,5.7-31.6c3.8-9.9,9.3-18.6,16.5-26.1c7.2-7.5,15.9-13.4,26.2-17.8
			c10.3-4.4,21.8-6.6,34.7-6.6c12.8,0,24.2,2.2,34.3,6.6c10.1,4.4,18.7,10.3,25.8,17.7c7.1,7.4,12.5,16,16.2,25.8
			c3.7,9.8,5.6,20,5.6,30.6c0,2.6-0.1,5.1-0.2,7.5c-0.1,2.4-0.4,4.4-0.8,6h-121.5c0.6,6.2,2.1,11.7,4.5,16.5
			c2.4,4.8,5.5,8.9,9.3,12.3c3.8,3.4,8.1,6,12.9,7.8c4.8,1.8,9.8,2.7,15,2.7c8,0,15.5-2,22.6-5.9c7.1-3.9,11.9-9,14.6-15.5l34.5,9.6
			c-5.8,12-15.1,21.9-27.8,29.6C3492.8,527.9,3477.7,531.7,3460.1,531.7z M3500.9,436.9c-1-11.8-5.4-21.2-13-28.4
			c-7.7-7.1-17.1-10.6-28-10.6c-5.4,0-10.5,1-15.2,2.8c-4.7,1.9-8.8,4.6-12.5,8c-3.6,3.4-6.6,7.5-8.8,12.3c-2.3,4.8-3.7,10.1-4,15.9
			H3500.9z"/>
		<path d="M3811.1,528.7h-40.2v-88.2c0-12.6-2.2-21.8-6.5-27.6c-4.3-5.8-10.3-8.7-17.8-8.7c-8,0-15.5,3.1-22.5,9.1
			c-7,6.1-12,14.1-15,23.9v91.5h-40.2v-88.2c0-12.6-2.2-21.8-6.5-27.6c-4.3-5.8-10.3-8.7-17.8-8.7c-7.8,0-15.3,3-22.3,9
			c-7.1,6-12.2,13.9-15.2,23.7v91.8h-40.2V371.5h36.3v29.1c5.8-10.2,13.7-18,23.9-23.5c10.1-5.5,21.6-8.2,34.6-8.2
			c13.2,0,23.4,3.2,30.6,9.6c7.2,6.4,11.8,14.3,13.8,23.7c6.4-10.8,14.5-19,24.3-24.8c9.8-5.7,21-8.5,33.6-8.5
			c9.6,0,17.5,1.8,23.7,5.4c6.2,3.6,11,8.3,14.4,14.1c3.4,5.8,5.7,12.4,7,19.8c1.3,7.4,2,14.9,2,22.5V528.7z"/>
		<path d="M3918.8,531.7c-12.8,0-24.3-2.2-34.5-6.6c-10.2-4.4-18.9-10.4-26-17.9c-7.1-7.5-12.6-16.1-16.4-25.9
			c-3.8-9.8-5.7-20.1-5.7-30.9c0-11,1.9-21.4,5.7-31.2c3.8-9.8,9.2-18.5,16.4-26c7.1-7.5,15.8-13.4,26-17.8
			c10.2-4.4,21.7-6.6,34.5-6.6c12.8,0,24.2,2.2,34.3,6.6c10.1,4.4,18.7,10.3,25.8,17.8c7.1,7.5,12.5,16.2,16.4,26
			c3.8,9.8,5.7,20.2,5.7,31.2c0,10.8-1.9,21.1-5.7,30.9c-3.8,9.8-9.2,18.4-16.2,25.9c-7,7.5-15.6,13.5-25.8,17.9
			C3943.1,529.5,3931.6,531.7,3918.8,531.7z M3877.7,450.4c0,7,1,13.3,3.2,19c2.1,5.7,5,10.6,8.7,14.9c3.7,4.2,8,7.5,13,9.8
			c5,2.3,10.4,3.4,16.2,3.4c5.8,0,11.2-1.1,16.2-3.4c5-2.3,9.3-5.6,13.1-9.8c3.7-4.2,6.6-9.2,8.7-15c2.1-5.8,3.2-12.2,3.2-19.2
			c0-6.8-1-13.1-3.2-18.9c-2.1-5.8-5-10.8-8.7-15c-3.7-4.2-8.1-7.4-13.1-9.8c-5-2.3-10.4-3.5-16.2-3.5c-5.8,0-11.2,1.2-16.2,3.6
			c-5,2.4-9.4,5.7-13,9.9c-3.7,4.2-6.6,9.2-8.7,15C3878.7,437.3,3877.7,443.6,3877.7,450.4z"/>
		<path d="M4018.1,450.1c0-11,1.9-21.4,5.7-31.2c3.8-9.8,9.3-18.4,16.5-25.8c7.2-7.4,15.9-13.3,26.1-17.7
			c10.2-4.4,21.7-6.6,34.5-6.6c17.2,0,31.8,3.7,44,11.1c12.1,7.4,21.1,17.1,27.1,29.1l-39.3,12c-3.4-5.8-7.9-10.2-13.5-13.3
			c-5.6-3.1-11.8-4.7-18.6-4.7c-5.8,0-11.2,1.2-16.2,3.5c-5,2.3-9.4,5.5-13,9.6c-3.7,4.1-6.6,9.1-8.7,14.9
			c-2.1,5.8-3.2,12.2-3.2,19.2c0,7,1.1,13.4,3.3,19.2c2.2,5.8,5.1,10.8,8.9,15c3.7,4.2,8,7.5,13,9.8c5,2.3,10.3,3.4,15.9,3.4
			c7.2,0,13.8-1.8,19.9-5.4c6.1-3.6,10.4-8,12.8-13.2l39.3,12c-5.4,12-14.3,21.8-26.7,29.4c-12.4,7.6-27.3,11.4-44.7,11.4
			c-12.8,0-24.3-2.2-34.5-6.6s-18.9-10.4-26.1-17.9c-7.2-7.5-12.8-16.2-16.7-26.1C4020,471.3,4018.1,460.9,4018.1,450.1z"/>
		<path d="M4290.8,406.3c-12.2,0.2-23.1,2.5-32.7,7c-9.6,4.5-16.5,11.2-20.7,20.2v95.1h-40.2V371.5h36.9v33.6
			c2.8-5.4,6.1-10.2,9.9-14.5c3.8-4.3,7.9-8,12.3-11.2c4.4-3.2,8.8-5.6,13.3-7.4c4.5-1.7,8.8-2.5,13-2.5c2.2,0,3.8,0,5,0
			c1.1,0,2.1,0.1,3.2,0.3V406.3z"/>
		<path d="M4354.1,531.7c-7.6,0-14.7-1.3-21.3-3.8c-6.6-2.5-12.3-6-17.1-10.5s-8.5-9.8-11.2-15.8s-4-12.6-4-19.8
			c0-7.4,1.7-14.2,5-20.6c3.3-6.3,7.9-11.6,13.8-16c5.9-4.4,12.9-7.8,21.2-10.4c8.2-2.5,17.2-3.8,27-3.8c7,0,13.8,0.6,20.5,1.8
			c6.7,1.2,12.6,2.9,17.8,5.1v-9c0-10.4-3-18.4-8.8-24c-5.9-5.6-14.7-8.4-26.2-8.4c-8.4,0-16.6,1.5-24.6,4.5
			c-8,3-16.2,7.4-24.6,13.2l-12.3-25.5c20.2-13.4,42-20.1,65.4-20.1c22.6,0,40.1,5.5,52.7,16.6c12.5,11.1,18.8,27.1,18.8,48.1v48.9
			c0,4.2,0.8,7.2,2.2,9c1.5,1.8,3.9,2.8,7.3,3v34.2c-6.8,1.4-12.7,2.1-17.7,2.1c-7.6,0-13.5-1.7-17.6-5.1c-4.1-3.4-6.7-7.9-7.6-13.5
			l-0.9-8.7c-7,9.2-15.5,16.2-25.5,21C4376.2,529.3,4365.5,531.7,4354.1,531.7z M4365.5,502.3c6.8,0,13.2-1.2,19.4-3.6
			c6.1-2.4,10.8-5.6,14.2-9.6c4.4-3.4,6.6-7.2,6.6-11.4v-18c-4.8-1.8-10-3.2-15.6-4.4c-5.6-1.1-11-1.6-16.2-1.6
			c-10.4,0-18.9,2.4-25.5,7c-6.6,4.7-9.9,10.7-9.9,17.9c0,6.8,2.6,12.5,7.8,17C4351.5,500.1,4357.9,502.3,4365.5,502.3z"/>
		<path d="M4576.4,520.6c-5.4,2.4-12,4.8-19.8,7.2s-16,3.6-24.6,3.6c-5.6,0-10.9-0.7-15.8-2.1c-4.9-1.4-9.2-3.6-12.9-6.8
			c-3.7-3.1-6.7-7.1-8.9-12c-2.2-4.9-3.3-10.8-3.3-17.9v-90.3h-20.7v-30.9h20.7v-51h40.2v51h33v30.9h-33v76.8
			c0,5.6,1.4,9.6,4.3,11.9c2.9,2.3,6.5,3.4,10.7,3.4s8.3-0.7,12.3-2.1c4-1.4,7.2-2.6,9.6-3.6L4576.4,520.6z"/>
		<path d="M4597.3,349.6v-39.9h40.2v39.9H4597.3z M4597.3,528.7V371.5h40.2v157.2H4597.3z"/>
		<path d="M4663.9,450.1c0-11,1.9-21.4,5.7-31.2c3.8-9.8,9.3-18.4,16.5-25.8c7.2-7.4,15.9-13.3,26.1-17.7
			c10.2-4.4,21.7-6.6,34.5-6.6c17.2,0,31.8,3.7,44,11.1c12.1,7.4,21.1,17.1,27.1,29.1l-39.3,12c-3.4-5.8-7.9-10.2-13.5-13.3
			c-5.6-3.1-11.8-4.7-18.6-4.7c-5.8,0-11.2,1.2-16.2,3.5c-5,2.3-9.4,5.5-13,9.6c-3.7,4.1-6.6,9.1-8.7,14.9
			c-2.1,5.8-3.2,12.2-3.2,19.2c0,7,1.1,13.4,3.3,19.2c2.2,5.8,5.1,10.8,8.9,15c3.7,4.2,8,7.5,13,9.8c5,2.3,10.3,3.4,15.9,3.4
			c7.2,0,13.8-1.8,19.9-5.4c6.1-3.6,10.4-8,12.8-13.2l39.3,12c-5.4,12-14.3,21.8-26.7,29.4c-12.4,7.6-27.3,11.4-44.7,11.4
			c-12.8,0-24.3-2.2-34.5-6.6s-18.9-10.4-26.1-17.9c-7.2-7.5-12.8-16.2-16.7-26.1C4665.9,471.3,4663.9,460.9,4663.9,450.1z"/>
		<path d="M5045.8,371.5c-1.4-1.4-4-3.3-7.6-5.7c-3.7-2.4-8.2-4.7-13.5-7.1c-5.3-2.3-11.1-4.2-17.2-5.8c-6.2-1.6-12.5-2.4-18.9-2.4
			c-11.4,0-19.9,2.1-25.5,6.3c-5.6,4.2-8.4,10.1-8.4,17.7c0,4.4,1,8.1,3.1,11c2.1,2.9,5.1,5.5,9.2,7.6c4,2.2,9,4.2,15.1,6
			c6.1,1.8,13.1,3.7,21.2,5.7c10.4,2.8,19.8,5.8,28.3,9c8.5,3.2,15.7,7.2,21.6,12c5.9,4.8,10.4,10.6,13.6,17.2
			c3.2,6.7,4.8,15,4.8,24.8c0,11.4-2.2,21.1-6.5,29.2c-4.3,8.1-10.1,14.7-17.4,19.6c-7.3,5-15.7,8.7-25.2,11
			c-9.5,2.3-19.5,3.4-29.8,3.4c-16,0-31.8-2.4-47.4-7.2c-15.6-4.8-29.6-11.6-42-20.4l18.3-35.7c1.8,1.8,5,4.2,9.8,7
			c4.7,2.9,10.2,5.8,16.6,8.7c6.4,2.9,13.5,5.4,21.3,7.4c7.8,2,15.8,3,24,3c22.8,0,34.2-7.3,34.2-21.9c0-4.6-1.3-8.5-3.9-11.7
			c-2.6-3.2-6.3-6-11.1-8.4c-4.8-2.4-10.6-4.6-17.4-6.6c-6.8-2-14.4-4.2-22.8-6.6c-10.2-2.8-19-5.9-26.5-9.1
			c-7.5-3.3-13.8-7.2-18.8-11.7c-5-4.5-8.8-9.7-11.2-15.6c-2.5-5.9-3.8-12.9-3.8-21.1c0-10.8,2-20.4,6-28.8c4-8.4,9.5-15.4,16.7-21
			c7.1-5.6,15.3-9.8,24.8-12.8c9.4-2.9,19.5-4.4,30.3-4.4c15,0,28.8,2.4,41.4,7c12.6,4.7,23.6,10.3,33,16.7L5045.8,371.5z"/>
		<path d="M5171.5,531.7c-12.8,0-24.3-2.2-34.5-6.6c-10.2-4.4-18.9-10.4-26-17.9c-7.1-7.5-12.6-16.1-16.4-25.9
			c-3.8-9.8-5.7-20.1-5.7-30.9c0-11,1.9-21.4,5.7-31.2c3.8-9.8,9.2-18.5,16.4-26c7.1-7.5,15.8-13.4,26-17.8
			c10.2-4.4,21.7-6.6,34.5-6.6c12.8,0,24.2,2.2,34.3,6.6c10.1,4.4,18.7,10.3,25.8,17.8c7.1,7.5,12.5,16.2,16.4,26
			c3.8,9.8,5.7,20.2,5.7,31.2c0,10.8-1.9,21.1-5.7,30.9c-3.8,9.8-9.2,18.4-16.2,25.9c-7,7.5-15.6,13.5-25.8,17.9
			C5195.8,529.5,5184.3,531.7,5171.5,531.7z M5130.4,450.4c0,7,1,13.3,3.2,19c2.1,5.7,5,10.6,8.7,14.9c3.7,4.2,8,7.5,13,9.8
			c5,2.3,10.4,3.4,16.2,3.4c5.8,0,11.2-1.1,16.2-3.4c5-2.3,9.3-5.6,13.1-9.8c3.7-4.2,6.6-9.2,8.7-15c2.1-5.8,3.2-12.2,3.2-19.2
			c0-6.8-1-13.1-3.2-18.9c-2.1-5.8-5-10.8-8.7-15c-3.7-4.2-8.1-7.4-13.1-9.8c-5-2.3-10.4-3.5-16.2-3.5c-5.8,0-11.2,1.2-16.2,3.6
			c-5,2.4-9.4,5.7-13,9.9c-3.7,4.2-6.6,9.2-8.7,15C5131.5,437.3,5130.4,443.6,5130.4,450.4z"/>
		<path d="M5270.8,450.1c0-11,1.9-21.4,5.7-31.2c3.8-9.8,9.3-18.4,16.5-25.8c7.2-7.4,15.9-13.3,26.1-17.7
			c10.2-4.4,21.7-6.6,34.5-6.6c17.2,0,31.8,3.7,44,11.1c12.1,7.4,21.1,17.1,27.1,29.1l-39.3,12c-3.4-5.8-7.9-10.2-13.5-13.3
			c-5.6-3.1-11.8-4.7-18.6-4.7c-5.8,0-11.2,1.2-16.2,3.5c-5,2.3-9.4,5.5-13,9.6c-3.7,4.1-6.6,9.1-8.7,14.9
			c-2.1,5.8-3.2,12.2-3.2,19.2c0,7,1.1,13.4,3.3,19.2c2.2,5.8,5.1,10.8,8.9,15c3.7,4.2,8,7.5,13,9.8c5,2.3,10.3,3.4,15.9,3.4
			c7.2,0,13.8-1.8,19.9-5.4c6.1-3.6,10.4-8,12.8-13.2l39.3,12c-5.4,12-14.3,21.8-26.7,29.4c-12.4,7.6-27.3,11.4-44.7,11.4
			c-12.8,0-24.3-2.2-34.5-6.6s-18.9-10.4-26.1-17.9c-7.2-7.5-12.8-16.2-16.7-26.1C5272.8,471.3,5270.8,460.9,5270.8,450.1z"/>
		<path d="M5449.9,349.6v-39.9h40.2v39.9H5449.9z M5449.9,528.7V371.5h40.2v157.2H5449.9z"/>
		<path d="M5569.3,531.7c-7.6,0-14.7-1.3-21.3-3.8c-6.6-2.5-12.3-6-17.1-10.5s-8.5-9.8-11.2-15.8s-4-12.6-4-19.8
			c0-7.4,1.7-14.2,5-20.6c3.3-6.3,7.9-11.6,13.8-16c5.9-4.4,12.9-7.8,21.2-10.4c8.2-2.5,17.2-3.8,27-3.8c7,0,13.8,0.6,20.5,1.8
			c6.7,1.2,12.6,2.9,17.8,5.1v-9c0-10.4-3-18.4-8.8-24c-5.9-5.6-14.7-8.4-26.2-8.4c-8.4,0-16.6,1.5-24.6,4.5
			c-8,3-16.2,7.4-24.6,13.2l-12.3-25.5c20.2-13.4,42-20.1,65.4-20.1c22.6,0,40.1,5.5,52.7,16.6c12.5,11.1,18.8,27.1,18.8,48.1v48.9
			c0,4.2,0.8,7.2,2.2,9c1.5,1.8,3.9,2.8,7.3,3v34.2c-6.8,1.4-12.7,2.1-17.7,2.1c-7.6,0-13.5-1.7-17.6-5.1c-4.1-3.4-6.7-7.9-7.6-13.5
			l-0.9-8.7c-7,9.2-15.5,16.2-25.5,21C5591.4,529.3,5580.7,531.7,5569.3,531.7z M5580.7,502.3c6.8,0,13.2-1.2,19.4-3.6
			c6.1-2.4,10.8-5.6,14.2-9.6c4.4-3.4,6.6-7.2,6.6-11.4v-18c-4.8-1.8-10-3.2-15.6-4.4c-5.6-1.1-11-1.6-16.2-1.6
			c-10.4,0-18.9,2.4-25.5,7c-6.6,4.7-9.9,10.7-9.9,17.9c0,6.8,2.6,12.5,7.8,17C5566.7,500.1,5573.1,502.3,5580.7,502.3z"/>
		<path d="M5698.3,309.7h40.2v168.6c0,5.8,1.4,10.3,4.2,13.5c2.8,3.2,6.8,4.8,12,4.8c2.4,0,5-0.4,7.9-1.2c2.9-0.8,5.6-1.8,8.2-3
			l5.4,30.6c-5.4,2.6-11.7,4.6-18.9,6c-7.2,1.4-13.7,2.1-19.5,2.1c-12.6,0-22.3-3.3-29.2-10c-6.9-6.7-10.3-16.2-10.3-28.6V309.7z"/>
		<path d="M5793.7,349.6v-39.9h40.2v39.9H5793.7z M5793.7,528.7V371.5h40.2v157.2H5793.7z"/>
		<path d="M5929.6,531.7c-13.2,0-26.1-2.1-38.7-6.3c-12.6-4.2-23.4-10.2-32.4-18l15-25.2c9.6,6.8,18.9,12,28.1,15.5
			c9.1,3.5,18.1,5.2,27.1,5.2c8,0,14.3-1.5,18.9-4.5c4.6-3,6.9-7.3,6.9-12.9c0-5.6-2.7-9.7-8.1-12.3c-5.4-2.6-14.2-5.6-26.4-9
			c-10.2-2.8-18.9-5.5-26.1-8.1c-7.2-2.6-13-5.5-17.4-8.9c-4.4-3.3-7.6-7.1-9.6-11.4c-2-4.3-3-9.4-3-15.4c0-8,1.5-15.2,4.7-21.6
			c3.1-6.4,7.4-11.9,13-16.4c5.6-4.5,12.1-8,19.6-10.4s15.6-3.6,24.5-3.6c11.8,0,22.8,1.7,33.2,5.1c10.3,3.4,19.7,8.9,28.3,16.5
			l-16.2,24.3c-8-6-15.8-10.4-23.2-13.2c-7.5-2.8-15-4.2-22.3-4.2c-6.8,0-12.5,1.4-17.1,4.2c-4.6,2.8-6.9,7.3-6.9,13.5
			c0,2.8,0.5,5.1,1.7,6.9c1.1,1.8,2.8,3.4,5.2,4.8c2.4,1.4,5.5,2.8,9.4,4c3.9,1.3,8.7,2.7,14.6,4c10.8,2.8,20,5.6,27.8,8.4
			c7.7,2.8,14,6,18.9,9.6c4.9,3.6,8.5,7.8,10.8,12.5c2.3,4.7,3.5,10.4,3.5,17c0,15.4-5.7,27.6-17.1,36.4
			C5964.7,527.3,5949.2,531.7,5929.6,531.7z"/>
		<path d="M6113.5,520.6c-5.4,2.4-12,4.8-19.8,7.2s-16,3.6-24.6,3.6c-5.6,0-10.9-0.7-15.8-2.1c-4.9-1.4-9.2-3.6-12.9-6.8
			c-3.7-3.1-6.7-7.1-8.9-12c-2.2-4.9-3.3-10.8-3.3-17.9v-90.3h-20.7v-30.9h20.7v-51h40.2v51h33v30.9h-33v76.8
			c0,5.6,1.4,9.6,4.3,11.9c2.9,2.3,6.5,3.4,10.7,3.4s8.3-0.7,12.3-2.1c4-1.4,7.2-2.6,9.6-3.6L6113.5,520.6z"/>
		<path d="M6193.9,531.7c-13.2,0-26.1-2.1-38.7-6.3c-12.6-4.2-23.4-10.2-32.4-18l15-25.2c9.6,6.8,18.9,12,28.1,15.5
			c9.1,3.5,18.1,5.2,27.1,5.2c8,0,14.3-1.5,18.9-4.5c4.6-3,6.9-7.3,6.9-12.9c0-5.6-2.7-9.7-8.1-12.3c-5.4-2.6-14.2-5.6-26.4-9
			c-10.2-2.8-18.9-5.5-26.1-8.1c-7.2-2.6-13-5.5-17.4-8.9c-4.4-3.3-7.6-7.1-9.6-11.4c-2-4.3-3-9.4-3-15.4c0-8,1.5-15.2,4.7-21.6
			c3.1-6.4,7.4-11.9,13-16.4c5.6-4.5,12.1-8,19.6-10.4s15.6-3.6,24.5-3.6c11.8,0,22.8,1.7,33.2,5.1c10.3,3.4,19.7,8.9,28.3,16.5
			l-16.2,24.3c-8-6-15.8-10.4-23.2-13.2c-7.5-2.8-15-4.2-22.3-4.2c-6.8,0-12.5,1.4-17.1,4.2c-4.6,2.8-6.9,7.3-6.9,13.5
			c0,2.8,0.5,5.1,1.7,6.9c1.1,1.8,2.8,3.4,5.2,4.8c2.4,1.4,5.5,2.8,9.4,4c3.9,1.3,8.7,2.7,14.6,4c10.8,2.8,20,5.6,27.8,8.4
			c7.7,2.8,14,6,18.9,9.6c4.9,3.6,8.5,7.8,10.8,12.5c2.3,4.7,3.5,10.4,3.5,17c0,15.4-5.7,27.6-17.1,36.4
			C6229,527.3,6213.5,531.7,6193.9,531.7z"/>
		<path d="M3245,861.7c-12.8,0-24.3-2.2-34.5-6.6c-10.2-4.4-18.9-10.4-26-17.9c-7.1-7.5-12.6-16.1-16.4-25.9
			c-3.8-9.8-5.7-20.1-5.7-30.9c0-11,1.9-21.4,5.7-31.2c3.8-9.8,9.2-18.5,16.4-26c7.1-7.5,15.8-13.4,26-17.8
			c10.2-4.4,21.7-6.6,34.5-6.6c12.8,0,24.2,2.2,34.3,6.6c10.1,4.4,18.7,10.3,25.8,17.8c7.1,7.5,12.5,16.2,16.4,26
			c3.8,9.8,5.7,20.2,5.7,31.2c0,10.8-1.9,21.1-5.7,30.9c-3.8,9.8-9.2,18.4-16.2,25.9c-7,7.5-15.6,13.5-25.8,17.9
			C3269.3,859.5,3257.8,861.7,3245,861.7z M3203.9,780.4c0,7,1,13.3,3.2,19c2.1,5.7,5,10.6,8.7,14.9c3.7,4.2,8,7.5,13,9.8
			c5,2.3,10.4,3.4,16.2,3.4c5.8,0,11.2-1.1,16.2-3.4c5-2.3,9.3-5.6,13.1-9.8c3.7-4.2,6.6-9.2,8.7-15c2.1-5.8,3.2-12.2,3.2-19.2
			c0-6.8-1-13.1-3.2-18.9c-2.1-5.8-5-10.8-8.7-15c-3.7-4.2-8.1-7.4-13.1-9.8c-5-2.3-10.4-3.5-16.2-3.5c-5.8,0-11.2,1.2-16.2,3.6
			c-5,2.4-9.4,5.7-13,9.9c-3.7,4.2-6.6,9.2-8.7,15C3204.9,767.3,3203.9,773.6,3203.9,780.4z"/>
		<path d="M3361.4,858.7V740.5h-20.7v-30.6h20.7v-9.6c0-19.6,4.7-35.1,14.1-46.5c9.4-11.4,22.2-17.1,38.4-17.1
			c12.8,0,25.7,3.1,38.7,9.3l-8.1,30.3c-3-1.6-6.6-2.9-10.7-4.1c-4.1-1.1-7.9-1.6-11.2-1.6c-14,0-21,9.4-21,28.2v11.1h38.4v30.6
			h-38.4v118.2H3361.4z"/>
		<path d="M3583.7,645.7h36.6l81,213h-42.6l-19.8-53.1h-74.4l-19.5,53.1h-42.6L3583.7,645.7z M3631.4,776.5l-29.4-83.7l-30.6,83.7
			H3631.4z"/>
		<path d="M3965,858.7h-40.2v-88.2c0-12.6-2.2-21.8-6.5-27.6c-4.3-5.8-10.3-8.7-17.8-8.7c-8,0-15.5,3.1-22.5,9.1
			c-7,6.1-12,14.1-15,23.9v91.5h-40.2v-88.2c0-12.6-2.2-21.8-6.5-27.6c-4.3-5.8-10.3-8.7-17.8-8.7c-7.8,0-15.3,3-22.3,9
			c-7.1,6-12.2,13.9-15.2,23.7v91.8h-40.2V701.5h36.3v29.1c5.8-10.2,13.7-18,23.9-23.5c10.1-5.5,21.6-8.2,34.6-8.2
			c13.2,0,23.4,3.2,30.6,9.6c7.2,6.4,11.8,14.3,13.8,23.7c6.4-10.8,14.5-19,24.3-24.8c9.8-5.7,21-8.5,33.6-8.5
			c9.6,0,17.5,1.8,23.7,5.4c6.2,3.6,11,8.3,14.4,14.1c3.4,5.8,5.7,12.4,7,19.8c1.3,7.4,2,14.9,2,22.5V858.7z"/>
		<path d="M4073,861.7c-12.6,0-24-2.2-34.2-6.5c-10.2-4.3-18.9-10.1-26.1-17.5c-7.2-7.4-12.8-16-16.7-25.8
			c-3.9-9.8-5.8-20.1-5.8-30.9c0-11.2,1.9-21.8,5.7-31.6c3.8-9.9,9.3-18.6,16.5-26.1c7.2-7.5,15.9-13.4,26.2-17.8
			c10.3-4.4,21.8-6.6,34.7-6.6c12.8,0,24.2,2.2,34.3,6.6c10.1,4.4,18.7,10.3,25.8,17.7c7.1,7.4,12.5,16,16.2,25.8
			c3.7,9.8,5.6,20,5.6,30.6c0,2.6-0.1,5.1-0.2,7.5c-0.1,2.4-0.4,4.4-0.8,6h-121.5c0.6,6.2,2.1,11.7,4.5,16.5
			c2.4,4.8,5.5,8.9,9.3,12.3c3.8,3.4,8.1,6,12.9,7.8s9.8,2.7,15,2.7c8,0,15.5-2,22.6-5.9c7.1-3.9,11.9-9,14.6-15.5l34.5,9.6
			c-5.8,12-15.1,21.9-27.8,29.5C4105.7,857.9,4090.6,861.7,4073,861.7z M4113.8,766.9c-1-11.8-5.4-21.2-13-28.4
			c-7.7-7.1-17.1-10.6-28-10.6c-5.4,0-10.5,1-15.2,2.8c-4.7,1.9-8.8,4.6-12.5,8c-3.6,3.4-6.6,7.5-8.8,12.3c-2.3,4.8-3.7,10.1-4,15.9
			H4113.8z"/>
		<path d="M4273.4,736.3c-12.2,0.2-23.1,2.5-32.7,7c-9.6,4.5-16.5,11.2-20.7,20.2v95.1h-40.2V701.5h36.9v33.6
			c2.8-5.4,6.1-10.2,9.9-14.5c3.8-4.3,7.9-8,12.3-11.2c4.4-3.2,8.8-5.6,13.3-7.4c4.5-1.7,8.8-2.5,13-2.5c2.2,0,3.8,0,5,0
			c1.1,0,2.1,0.1,3.2,0.3V736.3z"/>
		<path d="M4295.9,679.6v-39.9h40.2v39.9H4295.9z M4295.9,858.7V701.5h40.2v157.2H4295.9z"/>
		<path d="M4362.5,780.1c0-11,1.9-21.4,5.7-31.2c3.8-9.8,9.3-18.4,16.5-25.8c7.2-7.4,15.9-13.3,26.1-17.7
			c10.2-4.4,21.7-6.6,34.5-6.6c17.2,0,31.8,3.7,44,11.1c12.1,7.4,21.1,17.1,27.1,29.1l-39.3,12c-3.4-5.8-7.9-10.2-13.5-13.3
			c-5.6-3.1-11.8-4.7-18.6-4.7c-5.8,0-11.2,1.2-16.2,3.5c-5,2.3-9.4,5.5-13,9.6c-3.7,4.1-6.6,9.1-8.7,14.9
			c-2.1,5.8-3.2,12.2-3.2,19.2c0,7,1.1,13.4,3.3,19.2c2.2,5.8,5.1,10.8,8.9,15c3.7,4.2,8,7.5,13,9.8c5,2.3,10.3,3.4,15.9,3.4
			c7.2,0,13.8-1.8,19.9-5.4c6.1-3.6,10.4-8,12.8-13.2l39.3,12c-5.4,12-14.3,21.8-26.7,29.4c-12.4,7.6-27.3,11.4-44.7,11.4
			c-12.8,0-24.3-2.2-34.5-6.6c-10.2-4.4-18.9-10.4-26.1-17.9c-7.2-7.5-12.8-16.2-16.7-26.1S4362.5,790.9,4362.5,780.1z"/>
		<path d="M4584.5,861.7c-7.6,0-14.7-1.3-21.3-3.8c-6.6-2.5-12.3-6-17.1-10.5s-8.5-9.8-11.2-15.8s-4-12.6-4-19.8
			c0-7.4,1.7-14.2,5-20.5c3.3-6.3,7.9-11.6,13.8-16c5.9-4.4,12.9-7.8,21.2-10.4c8.2-2.5,17.2-3.8,27-3.8c7,0,13.8,0.6,20.5,1.8
			c6.7,1.2,12.6,2.9,17.8,5.1v-9c0-10.4-3-18.4-8.8-24c-5.9-5.6-14.7-8.4-26.2-8.4c-8.4,0-16.6,1.5-24.6,4.5
			c-8,3-16.2,7.4-24.6,13.2l-12.3-25.5c20.2-13.4,42-20.1,65.4-20.1c22.6,0,40.1,5.5,52.7,16.6c12.5,11.1,18.8,27.1,18.8,48.1v48.9
			c0,4.2,0.8,7.2,2.2,9c1.5,1.8,3.9,2.8,7.3,3v34.2c-6.8,1.4-12.7,2.1-17.7,2.1c-7.6,0-13.5-1.7-17.6-5.1c-4.1-3.4-6.7-7.9-7.6-13.5
			l-0.9-8.7c-7,9.2-15.5,16.2-25.5,21C4606.5,859.3,4595.9,861.7,4584.5,861.7z M4595.9,832.3c6.8,0,13.2-1.2,19.4-3.6
			c6.1-2.4,10.8-5.6,14.2-9.6c4.4-3.4,6.6-7.2,6.6-11.4v-18c-4.8-1.8-10-3.2-15.6-4.4c-5.6-1.1-11-1.6-16.2-1.6
			c-10.4,0-18.9,2.4-25.5,7c-6.6,4.7-9.9,10.6-9.9,17.9c0,6.8,2.6,12.5,7.8,17C4581.8,830.1,4588.2,832.3,4595.9,832.3z"/>
	</g>
	<g>
		<path class="st1" d="M3184.7,1238.5v-213h94.2c9.8,0,18.8,2.1,27.1,6.2c8.3,4.1,15.5,9.5,21.5,16.2c6,6.7,10.7,14.3,14.1,22.8
			c3.4,8.5,5.1,17.1,5.1,25.6c0,13.8-3.5,26.4-10.4,37.7c-6.9,11.3-16.3,19.5-28,24.5l48.6,80.1h-46.5l-43.5-71.4h-40.8v71.4H3184.7
			z M3226.1,1130.8h51.9c3.8,0,7.3-0.9,10.7-2.7c3.3-1.8,6.1-4.2,8.5-7.3c2.4-3.1,4.3-6.8,5.7-11c1.4-4.2,2.1-8.7,2.1-13.5
			c0-5-0.8-9.6-2.4-13.8c-1.6-4.2-3.8-7.8-6.4-11c-2.7-3.1-5.8-5.5-9.3-7.2c-3.5-1.7-7-2.5-10.6-2.5h-50.1V1130.8z"/>
		<path class="st1" d="M3378.8,1059.4v-39.9h40.2v39.9H3378.8z M3378.8,1238.5v-157.2h40.2v157.2H3378.8z"/>
		<path class="st1" d="M3445.4,1159.9c0-11,1.9-21.4,5.7-31.2c3.8-9.8,9.3-18.4,16.5-25.8c7.2-7.4,15.9-13.3,26.1-17.7
			c10.2-4.4,21.7-6.6,34.5-6.6c17.2,0,31.8,3.7,44,11.1c12.1,7.4,21.1,17.1,27.1,29.1l-39.3,12c-3.4-5.8-7.9-10.2-13.5-13.3
			c-5.6-3.1-11.8-4.7-18.6-4.7c-5.8,0-11.2,1.2-16.2,3.5c-5,2.3-9.4,5.5-13,9.6c-3.7,4.1-6.6,9.1-8.7,14.9
			c-2.1,5.8-3.2,12.2-3.2,19.2c0,7,1.1,13.4,3.3,19.2c2.2,5.8,5.1,10.8,8.9,15c3.7,4.2,8,7.5,13,9.8c5,2.3,10.3,3.5,15.9,3.5
			c7.2,0,13.8-1.8,19.9-5.4c6.1-3.6,10.4-8,12.8-13.2l39.3,12c-5.4,12-14.3,21.8-26.7,29.4c-12.4,7.6-27.3,11.4-44.7,11.4
			c-12.8,0-24.3-2.2-34.5-6.6c-10.2-4.4-18.9-10.4-26.1-17.9c-7.2-7.5-12.8-16.2-16.7-26.1C3447.3,1181,3445.4,1170.7,3445.4,1159.9
			z"/>
		<path class="st1" d="M3770.6,1238.5h-40.2v-88.2c0-12.4-2.3-21.5-6.9-27.5c-4.6-5.9-11.1-8.8-19.5-8.8c-3.6,0-7.4,0.8-11.4,2.4
			c-4,1.6-7.8,3.9-11.4,6.8c-3.6,2.9-6.9,6.4-9.9,10.3c-3,4-5.2,8.4-6.6,13.2v91.8h-40.2v-219h40.2v90.9c5.8-10.2,13.7-18,23.5-23.6
			c9.9-5.5,20.9-8.2,32.9-8.2c10.2,0,18.5,1.8,24.9,5.2c6.4,3.5,11.4,8.2,15,14c3.6,5.8,6.1,12.4,7.5,19.8c1.4,7.4,2.1,15,2.1,22.8
			V1238.5z"/>
		<path class="st1" d="M4049.9,1238.5h-40.2v-88.2c0-12.6-2.2-21.8-6.5-27.6c-4.3-5.8-10.3-8.7-17.8-8.7c-8,0-15.5,3.1-22.5,9.2
			c-7,6.1-12,14.1-15,23.8v91.5h-40.2v-88.2c0-12.6-2.2-21.8-6.5-27.6c-4.3-5.8-10.3-8.7-17.8-8.7c-7.8,0-15.3,3-22.3,9
			c-7.1,6-12.2,13.9-15.2,23.7v91.8h-40.2v-157.2h36.3v29.1c5.8-10.2,13.7-18,23.9-23.6c10.1-5.5,21.6-8.2,34.6-8.2
			c13.2,0,23.4,3.2,30.6,9.6c7.2,6.4,11.8,14.3,13.8,23.7c6.4-10.8,14.5-19.1,24.3-24.8c9.8-5.7,21-8.6,33.6-8.6
			c9.6,0,17.5,1.8,23.7,5.4c6.2,3.6,11,8.3,14.4,14.1c3.4,5.8,5.7,12.4,7,19.8c1.3,7.4,2,14.9,2,22.5V1238.5z"/>
		<path class="st1" d="M4157.6,1241.5c-12.8,0-24.3-2.2-34.5-6.6c-10.2-4.4-18.9-10.4-26-17.9c-7.1-7.5-12.6-16.1-16.4-26
			c-3.8-9.8-5.7-20.1-5.7-30.9c0-11,1.9-21.4,5.7-31.2c3.8-9.8,9.2-18.5,16.4-26c7.1-7.5,15.8-13.4,26-17.8
			c10.2-4.4,21.7-6.6,34.5-6.6c12.8,0,24.2,2.2,34.3,6.6c10.1,4.4,18.7,10.3,25.8,17.8c7.1,7.5,12.5,16.2,16.4,26
			c3.8,9.8,5.7,20.2,5.7,31.2c0,10.8-1.9,21.1-5.7,30.9c-3.8,9.8-9.2,18.5-16.2,26c-7,7.5-15.6,13.5-25.8,17.9
			C4181.9,1239.3,4170.4,1241.5,4157.6,1241.5z M4116.5,1160.2c0,7,1,13.3,3.2,19c2.1,5.7,5,10.7,8.7,14.8c3.7,4.2,8,7.5,13,9.8
			c5,2.3,10.4,3.5,16.2,3.5c5.8,0,11.2-1.1,16.2-3.5c5-2.3,9.3-5.5,13.1-9.8c3.7-4.2,6.6-9.2,8.7-15c2.1-5.8,3.2-12.2,3.2-19.2
			c0-6.8-1-13.1-3.2-18.9c-2.1-5.8-5-10.8-8.7-15c-3.7-4.2-8.1-7.4-13.1-9.8c-5-2.3-10.4-3.5-16.2-3.5c-5.8,0-11.2,1.2-16.2,3.6
			c-5,2.4-9.4,5.7-13,9.9c-3.7,4.2-6.6,9.2-8.7,15C4117.5,1147.1,4116.5,1153.4,4116.5,1160.2z"/>
		<path class="st1" d="M4412.9,1238.5h-40.2v-88.2c0-12.6-2.2-21.8-6.6-27.6c-4.4-5.8-10.5-8.7-18.3-8.7c-4,0-8.1,0.8-12.3,2.4
			c-4.2,1.6-8.2,3.9-11.8,6.8c-3.7,2.9-7.1,6.4-10.1,10.3c-3,4-5.2,8.4-6.6,13.2v91.8h-40.2v-157.2h36.3v29.1
			c5.8-10,14.2-17.8,25.2-23.4c11-5.6,23.4-8.4,37.2-8.4c9.8,0,17.8,1.8,24,5.4c6.2,3.6,11,8.3,14.4,14.1c3.4,5.8,5.7,12.4,7,19.8
			c1.3,7.4,2,14.9,2,22.5V1238.5z"/>
		<path class="st1" d="M4513,1241.5c-10.8,0-20.8-2.1-30-6.3c-9.2-4.2-17.1-10-23.7-17.4c-6.6-7.4-11.8-16-15.5-26
			c-3.7-9.9-5.5-20.5-5.5-31.9c0-11.4,1.7-22,5.2-31.8c3.5-9.8,8.3-18.4,14.5-25.8c6.2-7.4,13.6-13.2,22.2-17.4
			c8.6-4.2,18-6.3,28.2-6.3c11.6,0,22,2.8,31.3,8.4c9.3,5.6,16.5,12.9,21.8,21.9v-89.4h40.2v172.8c0,4.2,0.7,7.2,2.1,9
			c1.4,1.8,3.8,2.8,7.2,3v34.2c-7,1.4-12.7,2.1-17.1,2.1c-7.2,0-13.1-1.8-17.7-5.4c-4.6-3.6-7.2-8.3-7.8-14.1l-0.9-9.9
			c-5.8,10-13.7,17.5-23.5,22.6C4534.2,1238.9,4523.8,1241.5,4513,1241.5z M4523.5,1207.3c3.8,0,7.7-0.6,11.7-2
			c4-1.3,7.7-3.1,11.1-5.5c3.4-2.4,6.5-5.2,9.1-8.4c2.7-3.2,4.7-6.7,6.2-10.5v-37.5c-1.6-4.4-3.9-8.4-6.8-12.2
			c-2.9-3.7-6.2-6.9-9.9-9.6c-3.7-2.7-7.6-4.8-11.7-6.5c-4.1-1.6-8.2-2.4-12.2-2.4c-6,0-11.5,1.3-16.7,3.9c-5.1,2.6-9.4,6.1-13,10.6
			c-3.6,4.5-6.4,9.7-8.4,15.5c-2,5.8-3,11.8-3,18c0,6.6,1.1,12.7,3.3,18.3c2.2,5.6,5.2,10.5,9,14.7c3.8,4.2,8.3,7.5,13.6,9.9
			C4511.3,1206.1,4517.1,1207.3,4523.5,1207.3z"/>
		<path class="st1" d="M4645,1273l8.1-35.7h-12.6v-42h34.8v42L4663,1273H4645z"/>
		<path class="st1" d="M4798.6,1025.5l57.6,161.1l57-161.1h43.5l-83.1,213h-34.8l-83.7-213H4798.6z"/>
		<path class="st1" d="M5021.8,1025.5h36.6l81,213h-42.6l-19.8-53.1h-74.4l-19.5,53.1h-42.6L5021.8,1025.5z M5069.5,1156.3
			l-29.4-83.7l-30.6,83.7H5069.5z"/>
	</g>
</g>
</svg>
