<svg xmlns="http://www.w3.org/2000/svg" viewBox="0 0 508.82 465.93"><defs><style>.cls-1{fill:#ec1f27;}</style></defs><g id="Layer_2" data-name="Layer 2"><g id="Layer_1-2" data-name="Layer 1"><path class="cls-1" d="M125.11,146.27a50.15,50.15,0,0,1-8-31.18c1.06-18.25,11.87-31.44,23.63-43.88,6.95-7.34,12-15.39,13.94-25.38,5.42-1.22,11-2,16.3-3.85a20.5,20.5,0,0,0,8.34-5.69c3.72-4.23,6.59-9.19,10-13.67C207.07-.27,241.7,1.07,257.29,10.32c7.36,4.37,13.84,10.33,20.33,16,3.28,2.87,6.25,4.52,10.56,2.89,1.52-.58,3.27-.53,4.93-1.34H282.43l-.79-1.73c9.16-6.11,18.21-12.4,27.52-18.28,12.35-7.78,26-8.52,40-6.69,4.45.58,8.94,1,13.41,1.46a62.93,62.93,0,0,0,20.32-.46C394.43-.13,406.57-1.6,418.36,3c7.3,2.88,14.71,2.41,22-2.83.23,2.54.23,4.6.62,6.59C443.2,18.19,446,29.5,447.72,41c1.52,10.31,3.08,20.79-.34,31.17-.75,2.25-.49,4.83-.69,7.26-18.54-1-29.52,1.88-37.81,10.11-20.23-15.41-40.76-13.81-60.83,0-2.52-10.78-4.46-21.54-7.61-31.93-3.35-11-11.69-18-21.9-23.09,16.52,9.73,20.52,26,22.19,43.08.59,6-.55,12.22-1.26,18.3-.41,3.45-2.54,5.47-6.33,5.88-4.1.46-8.13,1.5-12,2.26C314.05,91.75,304,86.86,290.35,89.91c-8.73,2-17.11,5.39-25.74,7.86a17.47,17.47,0,0,1-7.45.18c-7.19-1.24-14.3-4-21.46-4-12.37-.07-24.42,8.41-23.11,24.13.27,0,.72.1.8,0,10.32-16.67,26-18.4,43.38-15.84a19.62,19.62,0,0,0,9.46-1c11.75-4.49,23.66-7,36.18-4.41,7.33,1.52,9.77,4.45,10.62,12.09a16.41,16.41,0,0,0,2.73.17c17.92-1.74,27.76,11.52,28.26,25.9.17,5.1-.79,10.27-1.64,15.35a5.57,5.57,0,0,0,2,5.91c10.82,10,13.05,26.29-.39,37.95-2.17,1.88-5.12,2.86-8.14,4.49.47,1.27,1.24,3,1.79,4.83,2.23,7.43-1.28,12.95-6.29,17.78-3.47,3.34-7.72,6-10.73,9.69a91.75,91.75,0,0,0-9.22,14.63c-1.14,2.12-1.87,3.69-4.57,3.3-6-.86-11.33.88-16.66,3.7-16.47,8.74-37.07,9-55.25,6.11,8.16-8.75,15-17.62,23.34-24.69,14.23-12,29-23.59,44.3-34.18,20.11-13.87,27.45-33,26.07-56.37a43.86,43.86,0,0,0-8.23-22.75,14.54,14.54,0,0,0-4.85-4.11c-12.71-7.12-26.65-7.79-40.75-7.5-5.66.11-11.68-.89-16.89.71-5,1.55-9.18,5.86-13.77,8.88-14.48,9.5-26.79,21.41-37.73,34.73a21.19,21.19,0,0,0-4,9c-3.56,17.47,2.85,32.91,10.38,49.66,2.18-9,3.47-16.7,6-24,2.13-6.19,5.61-11.93,8.62-17.8,1.45-2.83,3.82-3,6.8-2.31,7.32,1.59,14.7,2.83,22.07,4.14,18.26,3.24,33.38-3.11,46.56-15.31l3.72-3.4c2.63,9.32,5.16,18.08,7.51,26.88a3.74,3.74,0,0,1-1.14,3c-6.61,6.33-13.18,12.72-20.07,18.75a101,101,0,0,1-11.41,8.06c-9.3,6.12-18.7,12.09-28,18.23s-15.16,15.27-20.78,24.58c-1.2,2-2.6,3.83-4.58,6.73-6.87-4.27-14-7.91-20.14-12.77-5.07-4-7.26-10.15-7.4-16.89a7.63,7.63,0,0,0-2.34-5c-4.11-3.64-8.77-6.66-12.77-10.4-2.12-2-4.56-4.91-4.69-7.51-.37-7.42.47-14.89.62-22.34a38.57,38.57,0,0,0-.76-8.65c-1.21-5.69-2.91-11.27-4.13-16.94-2-9.34,2.5-17.27,6.29-25.12,1.13-2.34,4.76-4.05,7.59-4.9,5.88-1.78,12-2.71,18-4.2,1.38-.35,2.55-1.57,3.82-2.39-1.42-.73-2.91-2.2-4.23-2-4.89.54-9.73,1.61-14.58,2.47l.18,1.31c-.15-.07-.37-.11-.43-.22-5.12-11.54-7.87-13-20.63-11.36-3.95.52-7.9,1.08-11.87,1.51-13.81,1.49-17.19,6.75-12.4,20.18Z"/><path class="cls-1" d="M389.61,251.26c4.83.06,8.14-2.31,9.74-7.83,2.26-7.77,5.56-15.25,7.9-23,1.74-5.74.31-11.19-3.43-16-7.48-9.59-14.84-19.26-22.44-28.75-1-1.25-3.07-1.7-4.7-2.39-7.62-3.24-15.26-6.42-22.89-9.64-.45-.19-1.21-.55-1.2-.8.32-5-4.26-8.29-3.65-13.74,1.72-15.53,1.9-31-9-44.12a4.42,4.42,0,0,1,.06-4.29c2.57-3,5.27-6.11,8.55-8.19,9.61-6.09,20.47-8.83,31.67-9.84,10.82-1,18.86,4.26,25,12.76,1.35,1.86,2.5,3.87,3.9,6,4.72-4.27,9.23-8.4,13.8-12.46,9.47-8.42,20.44-6.29,31.34-4.27a3.66,3.66,0,0,1,2,1.84,10.89,10.89,0,0,1,1,3.35c3.63,21.33,11.81,41.24,19.58,61.23,3.59,9.24,3.52,18.11,1.09,27.34-3.69,14.07-10.57,26.59-19.06,38.23a11.44,11.44,0,0,0-2.41,9.14c5.87,40.83-32.49,66.71-69.19,57.51-.44-.11-.79-.56-1.94-1.41,1.84-3.17,3.07-7.1,5.72-9.43,3.58-3.15,3.22-6.05,1.76-9.66-.91-2.26-1.67-4.57-3-8.28-2.1,6.05-3.4,10.83-5.38,15.31C377.73,285,371,300,363.87,314.82c-1.5,3.11-4.6,5.61-7.36,7.93-11,9.22-22.36,17.94-33.1,27.41C300.23,370.64,272.7,377,243,374.27c-16.66-1.51-33.11-5.47-49.6-8.59-2.3-.44-4.47-2.17-6.41-3.68-11.75-9.08-20.84-20.52-28.8-32.94-1.85-2.89-1.87-4.37,1.87-5.79,9.29-3.52,18.36-7.63,27.56-11.4,1-.42,2.69-.62,3.5-.08,11.06,7.37,23.41,6.91,35.76,5.76A276.67,276.67,0,0,0,256,313.66c5.41-1.1,10.39-4.23,15.6-6.33,1.44-.58,3.13-1.25,4.57-1a75,75,0,0,0,36-3.21,27.51,27.51,0,0,1,6.33-1.16c9.41-.8,16.76-4.89,21.91-13a8.07,8.07,0,0,1,4.45-3.18c28.61-6.92,24.5-5.09,43-29.32C388.85,255.19,389,253.27,389.61,251.26Z"/><path class="cls-1" d="M303.81,443c-8.57-20.35-26.08-24.44-44.76-26.3-12-1.2-23.76-2.83-34.23-9.68-11.08-7.24-22.09-21.39-26-34.28,36.7,14.06,73.55,15.37,109.78-1.1C345.39,355,365.52,323.22,381,288c17.8,3.58,35.65,11.38,53-3.86,4,8.56,8,17.22,12,25.88l1.19-.2c-1.78-8.71-3.55-17.43-5.26-25.8,6.69-9.4,15.85-18.49,20.22-29.49s4-24.08,5.79-36.42a41.48,41.48,0,0,1,17.62,22.54,100.23,100.23,0,0,1,2.41,49.87,22.17,22.17,0,0,1-.7,2.92c-6.88,19.43-1.06,35.94,11.74,50.81,3.25,3.77,6.65,7.41,9.88,11-5.31,2.43-11,4.38-15.95,7.41a64.27,64.27,0,0,0-26.35,30.48,145.28,145.28,0,0,1-10,18.94c-7.12,11.53-17.83,17.72-31.17,19.3-21.18,2.49-41-2.24-60.06-11.33-.23-.11-.32-.53-.65-1.11,15.95-1.31,26.32-11.94,36.88-22,4.21-4,4.62-7.35,2.79-12.87-5.07,8.87-12.57,14.13-20.9,18.92a126,126,0,0,1-33.37,13c-15.61,3.8-28.59,12.44-40.74,22.52C307.61,439.8,306,441.19,303.81,443Zm131.34-81c-7.83,4.07-15.75,8.77-24.16,12.32-4.31,1.82-5.62,4.16-5.58,8.78C417.53,378.23,427.77,371.64,435.15,362Z"/><path class="cls-1" d="M172.82,356.78c-8.11,6.29-17.45,9.67-27.44,11.26-16.46,2.61-32.89,3.08-48.9-2.56-11.31-4-20-11.12-24.85-22.42a7.06,7.06,0,0,0-3.8-3.29c-6.1-2.21-12.26-4.28-18.5-6.06C32.9,329,23.21,316.55,14.06,303.48c-.65-.92-.36-3.31.41-4.27,9-11.19,14.92-24,20.11-37.23A33.59,33.59,0,0,1,51.34,243.6c3.67-1.84,3.49-3.9,3.23-7.41-.79-10.57-2.67-21.52-.82-31.72,5.81-32.1,20.59-45,49.64-47.25,4.3-.34,8.64-.05,13.35-.05a7.28,7.28,0,0,1-.88,1.56c-10.79,10.82-12.52,23.64-8.72,37.88.56,2.1,0,4.66-.59,6.89-1.85,7.56-4.79,14.95-5.69,22.6-1.7,14.3,5.49,24.53,17.71,32.1-4.83,4.9-6.26,10.68-5,17.07.4,2.09.7,4.81,2.11,6,4.07,3.43,4.18,8.39,6.15,12.63,1.82,3.93,5.23,7.13,7.68,10.32-2.38,5.82-5,12.18-7.57,18.6-.6,1.52-1.23,3.34-.93,4.85a62.6,62.6,0,0,0,2.67,8.19c2.1-1.33,4.44-2.39,6.24-4,3.42-3.13,6.54-6.6,9.6-9.74,5.78,7.95,10.14,15.34,15.89,21.41,4.3,4.53,10.4,7.34,15.69,10.93.88.6,3.76,0,1.59,2.53Z"/><path class="cls-1" d="M375,248.86c.19,1.83.34,3.14.47,4.45.94,9.69-1.32,13.75-10.18,17.62-8.68,3.78-17.25,8.06-27.58,7.53-4.67,13.94-15.57,20.85-29.29,23.9-13.9,3.08-26.29-1-37.47-9.71C263.21,306,250.62,310.24,236.84,312c-17.61,2.29-34.25,0-48.78-11.74-8.33,9.49-19.08,12.81-31.45,12.63-8.13-.11-15.09,3.68-21.58,8.28-1.3.92-2.58,1.88-4.12,3,4.46-28.91,27.4-53.91,53.92-57.79,10.8-1.58,21.95-.74,32.92-1.29,19.61-1,39.44-.68,58.77-3.61,27-4.09,52.28-14.38,75.5-29,14.42-9.08,22.72-18.74,35.36-39.19,7.7,8.38,12.13,17.91,12.06,29.27-.09,13.8-5.08,20.4-18.24,24.52C379.3,247.71,377.37,248.2,375,248.86Z"/><path class="cls-1" d="M0,124.31c13.62-5.17,23.68-14.18,32.39-24.91C42,87.54,53.48,79.19,69.55,79c1.25,0,2.76-1.37,3.68-2.49,2.94-3.59,5.33-7.69,8.53-11,16.29-17,41.24-18.64,59.64-4.74-6.18,7.76-12.78,15.25-18.46,23.38-7.58,10.85-10.68,23.62-13.19,36.37-1.6,8.16,1.16,15.82,5,23,1.18,2.17,2.57,4.23,3.94,6.47-4.37,0-8.55-.2-12.71,0-30.56,1.65-50.47,17.86-56.22,51.27-1.87,10.85-1.58,22.19-1.16,33.26.22,5.54-3.34,6.95-6.52,8.61-1.29.68-4.48-1.07-6.11-2.51a27.44,27.44,0,0,1-9.69-18.57c-.37-4.15-1.17-8.34-.87-12.45,2.18-29.76-8.15-55.91-22.84-80.87Z"/><path class="cls-1" d="M172.82,356.78l-.17.16c5.22.29,12.07,5.44,13.77,10.39a106.28,106.28,0,0,0,25.83,41.6c11.14,11.09,24.81,15,39.84,15.76,4.13.22,8.29,0,13.34,0a96.13,96.13,0,0,1-28.09,21,86.93,86.93,0,0,1-49.52,8.63c-18.91-2.3-36.36,2-53.27,9.82-1.32.61-2.7,1.09-4.26,1.72-2.27-6.55-4.56-12.76-6.58-19.06-2.36-7.36-6.27-13.57-12.69-18-6.59-4.55-9.46-10.82-9.28-18.77a15.09,15.09,0,0,0-1.5-5.7c-3.84-9.34-3.76-18.75-.9-28.8,2,.33,3.77.64,5.52.91,23.37,3.62,45.16.37,64.13-14.87C170.55,360.38,171.56,358.42,172.82,356.78Z"/><path class="cls-1" d="M119.14,197c-7.2-10.07-4.48-20.62-.44-30.2,2.48-5.88,8.24-10.52,13-15.28,2.53-2.55,5.86-4.41,9.06-6.16,6.23-3.4,10.78-7,11.29-15.41.53-8.93,11.41-15.3,20.2-13.17,4.84,1.17,9.41,3.43,14,5.16l-26.43,13.9.75,1.5,15.49-7.49c-1.4,5.55-3.45,10.69-3.87,15.95a141.45,141.45,0,0,0,.27,21.78c.76,10.09-3.66,18-9.5,25.52a30.17,30.17,0,0,0-4.53,8.15c-4.55,12.85-8.84,25.79-13.33,39-15-27.09-14.17-54.81-5.19-83.27-5.75,7.27-13.54,13.1-13,23.82,1.51,32.18,10.57,61.51,31.9,86.33.87,1,1.71,2,2.93,3.47-9.71,8.6-24.72,11.88-27.19,27.51l-11.48-6c1.24-3.88,2.61-8.18,4-12.52-9-5.33-8.77-18.06-1.12-25.3-11.91-4.93-16.57-15.4-19.14-26.7C103.91,215.15,110.15,205.45,119.14,197Z"/><path class="cls-1" d="M177,182.53c0,5.2.47,10.46-.09,15.61-1.49,13.75,5.89,22.5,15.94,30,1.5,1.12,3.2,2.43,3.94,4,4.56,10.08,7.91,20.88,17.5,28.2-4.76,0-9.54.31-14.28-.07-7.78-.61-15.22.15-22.36,3.5-2.24,1.05-4.8,1.39-7.13,2.28-3.7,1.4-6,.36-7.24-3.44a9.62,9.62,0,0,0-1.41-2.64c-7.71-10.69-8.09-22-4.55-34.48,3.89-13.7,8.17-27.08,15.62-39.28.83-1.36,1.78-2.64,2.68-4Z"/><path class="cls-1" d="M302.85,143.44c-2.4-7.37-10-13.05-17.67-13-22.73.12-42.74,7.06-59.43,23a26.56,26.56,0,0,0-8.24,16c-1.15,8.05-1.89,16.16-2.75,23.73-6.09-9.81-5.11-28.64,2-38.39,3.83-5.23,6.84-11.05,10.64-16.3A61.61,61.61,0,0,1,301,118.28c13.93,6,21.58,17.14,21.42,32-.08,7.59-4,15.14-6.46,23.71-3.16-8.91-5.68-16.55-8.62-24-1-2.45-3-4.47-4.57-6.68Z"/><path class="cls-1" d="M317.3,245c6.53-6,12.95-12,19.51-17.79,4.68-4.17,8.19-9.06,7.93-15.46a8.89,8.89,0,0,1,4.49-8.66c.14-.09.24-.25.39-.31,10.22-3.87,11.23-12,10.2-21.34-.58-5.23.75-6.07,6-5.18a19.52,19.52,0,0,1,16.36,17.16,7.11,7.11,0,0,1-1.26,4.56,139,139,0,0,1-62.58,47.17C318.06,245.26,317.72,245.08,317.3,245Z"/><path class="cls-1" d="M258.69,135.4c-7.1,13-3.13,25.68,10,31.88-3.65,0-7.35.38-10.94-.09-4.58-.6-9.05-2.08-13.63-2.82-4.4-.7-5.71-2.69-4.77-7.13,1.61-7.58,3.75-14.44,12.05-17.39C253.68,139,255.63,137.31,258.69,135.4Z"/><path class="cls-1" d="M302.77,143.28c-2.27,8.87-5.54,13.23-13.25,17.88,2.39-11.87-4.07-19.44-13.21-25.86,9.49,1.08,19.12,1,26.54,8.13Z"/><path class="cls-1" d="M435.15,362c-7.38,9.6-17.62,16.19-29.74,21.1,0-4.62,1.27-7,5.58-8.78C419.4,370.81,427.32,366.11,435.15,362Z"/></g></g></svg>